<svg fill="none" height="39" viewBox="0 0 200 39" width="200" xmlns="http://www.w3.org/2000/svg" xmlns:xlink="http://www.w3.org/1999/xlink"><clipPath id="a"><path d="m0 0h200v38.1965h-200z"/></clipPath><g clip-path="url(#a)" fill="#252e37"><path d="m62.2817 37.426h-7.9924c1.43-2.899.2878-5.2554-1.1303-9.2606l-1.415-4.1971h-12.918c-1.1332 5.1115-1.6518 10.3219.9174 13.4547h-7.0931l12.6302-36.652538h6.0438l-.0959.095933c-.7945.869395.6805 5.159415 1.9816 9.212605l9.0657 27.347zm-10.8225-14.2281-6.4035-18.95285-3.6275 10.41775c-.8514 2.5572-1.7568 5.4982-2.4373 8.5351h12.4653z"/><path d="m164.828 37.426h-7.992c1.43-2.899.288-5.2554-1.13-9.2606l-1.415-4.1971h-12.918c-1.133 5.1115-1.652 10.3219.917 13.4547h-7.093l12.63-36.652538h6.044l-.096.095933c-.794.869395.681 5.159415 1.982 9.212605l9.065 27.347zm-10.822-14.2281-6.404-18.95285-3.627 10.41775c-.851 2.5572-1.757 5.4982-2.437 8.5351h12.465z"/><path d="m64.686 19.0488c0-11.86579 5.1565-19.0488 15.6971-19.0488 10.5407 0 15.6941 7.18601 15.6941 19.0488 0 11.8627-4.9286 19.1477-15.6941 19.1477s-15.6971-7.282-15.6971-19.1477zm25.6112 0c0-12.00969-3.0039-18.182402-9.9141-18.182402-6.1187 0-9.8601 6.172712-9.8601 18.182402 0 12.0096 3.7414 18.2783 9.8601 18.2783 6.9132 0 9.9141-6.0768 9.9141-18.2783z"/><path d="m13.3377 11.2841c0-4.00217 12.4654-.0479 12.4654-6.46046 0-1.5919-2.0956-4.050187-9.2366-4.050187h-16.5665v36.652547h14.8097c9.6893 0 14.2791-5.6901 14.2791-10.8015 0-12.6842-15.7511-11.1403-15.7511-15.3374zm.2848 25.4164h-7.98942l-.05696-35.15958h9.57538c3.0578 0 4.9855.62656 4.9855 2.79706 0 5.59411-7.3659 2.36235-7.3659 6.94322 0 4.5808 10.5377 4.9195 10.5377 15.3373 0 4.5808-2.7761 10.079-9.6893 10.079z"/><path d="m100.02 26.6215c0 5.1114 4.589 10.8015 14.279 10.8015h14.809v-36.652538h-16.566c-7.138 0-9.237 2.458288-9.237 4.050188 0 6.41255 12.466 2.45829 12.466 6.46055 0 4.197-15.751 2.6531-15.751 15.3373zm5.779 0c0-10.4178 10.538-10.8045 10.538-15.3373 0-4.58086-7.366-1.34911-7.366-6.94322 0-2.17049 1.928-2.79706 4.986-2.79706h9.575l-.057 35.15958h-7.989c-6.913 0-9.69-5.4982-9.69-10.079z"/><path d="m184.249 11.2841c0-4.00217 12.465-.0479 12.465-6.46046 0-1.5919-2.095-4.050187-9.236-4.050187h-16.567v36.652547h14.81c9.689 0 14.279-5.6901 14.279-10.8015 0-12.6842-15.751-11.1403-15.751-15.3374zm.285 25.4164h-7.99l-.057-35.15958h9.576c3.058 0 4.985.62656 4.985 2.79706 0 5.59411-7.366 2.36235-7.366 6.94322 0 4.5808 10.538 4.9195 10.538 15.3373 0 4.5808-2.776 10.079-9.689 10.079z"/></g></svg>