<?xml version="1.0" encoding="UTF-8"?>
<svg id="Layer_1" xmlns="http://www.w3.org/2000/svg" version="1.1" viewBox="0 0 492.9 291.4">
  <!-- Generator: Adobe Illustrator 29.4.0, SVG Export Plug-In . SVG Version: 2.1.0 Build 152)  -->
  <defs>
    <style>
      .st0 {
        fill: #0a2c4a;
      }
    </style>
  </defs>
  <path class="st0" d="M418.9,116.4c-.4.5-1,.8-1.9,1.1l-4.5.8c-.6,0-1.1.3-1.5.7-.3.3-.4.6-.4,1s.1.8.4,1.1.7.4,1.3.4h29.8c1.4,0,2.1-.5,2.1-1.6s-.5-1.2-1.6-1.6l-4.5-.8c-.9-.2-1.5-.6-2-1.1-.4-.5-.6-1.3-.6-2.3v-23l10.1-9.1,18.9,30.4c1.1,1.8,1.6,3.1,1.3,4-.2.8-1.1,1.4-2.7,1.6l-3.5.6c-.5,0-.9.3-1.2.6-.2.3-.3.6-.3.9s.2.8.5,1.1.8.4,1.3.4h31.1c.6,0,1.1,0,1.4-.3.4-.3.6-.6.6-1.1s-.1-.7-.4-1-.8-.6-1.5-.8c-2-.4-3.5-1-4.6-1.7-1-.7-2.2-2-3.4-3.8l-26.1-41.1,13-11.8c3-2.8,5.9-4.9,8.5-6.3,2.7-1.4,5.6-2.4,8.7-3,1-.2,1.7-.4,2.1-.7.3-.3.5-.7.5-1.2s-.2-.8-.6-1.1c-.3-.3-.8-.4-1.6-.4h-26.5c-.7,0-1.2,0-1.6.4-.3.3-.5.6-.5,1.1s.1.7.3,1c.2.2.6.4,1.3.6l3.3.6c2.5.5,3.9,1.5,4.2,3,.3,1.5-.6,3.3-2.7,5.2l-29.8,27.6V2.4c0-.7-.2-1.3-.6-1.7C434.5.2,433.9,0,433.2,0S432.2,0,431.6.2c-.5.1-1.3.3-2.4.7l-17.1,5.3c-.6.2-1.1.5-1.4.7s-.3.5-.3,1,.1.6.3.9c.2.2.6.4,1.1.4h6c.6.1,1.1.3,1.3.7.3.3.4.8.4,1.6v102.6c0,1-.1,1.8-.6,2.3h0Z"/>
  <path class="st0" d="M356.5,118.7c5.3,3,11.3,4.4,18.1,4.4s10.4-1,14.7-3c4.3-2,7.8-4.9,10.6-8.6,2.8-3.7,4.6-8,5.4-12.9,0-.5,0-.9-.2-1.2-.2-.3-.4-.5-.8-.6-.3,0-.6,0-.9.3,0,0,0,0,0,0-.5.5-.9,1.2-1.2,1.9-1.5,4.2-4.1,7.6-7.7,9.8-3.7,2.5-8.2,3.7-13.3,3.7s-9.7-1.3-13.7-3.9c-3.9-2.6-7.1-6.4-9.4-11.4s-3.5-11.1-3.5-18.4.8-11.3,2.5-15.7c1.8-4.5,4.2-7.9,7.3-10.4,3.1-2.5,6.5-3.7,10.7-3.7s7.6,1.1,10,3.4c2.4,2.2,3.6,5.1,3.6,8.8v3.8c0,2.6.7,4.7,2.1,6.3,1.4,1.5,3.5,2.2,5.9,2.2s4.4-.8,5.9-2.3c1.5-1.6,2.3-3.6,2.3-6.1h0c0-3.6-1.1-6.9-3.4-9.8-2.2-3-5.5-5.4-9.6-7.2s-9.1-2.7-15-2.7-13.9,1.8-19.5,5.4-10,8.4-13.1,14.5c-3.1,6-4.7,12.5-4.7,20.4s1.5,14.6,4.5,20.2c3,5.5,7.1,9.8,12.4,12.8h0Z"/>
  <path class="st0" d="M260.6,119.4l19.5-59.5c.9-2.8,1.9-4.9,2.9-6.3,1-1.4,2.1-2.2,3.5-2.6l2.5-.7c.6-.2,1.1-.4,1.3-.6.3-.3.4-.6.4-1s-.2-.9-.6-1.1c-.3-.3-.8-.4-1.5-.4h-20.3c-.6,0-1.1,0-1.5.4-.3.2-.5.6-.5,1.1s.1.8.4,1.1c.3.2.7.4,1.4.6l4,.7c2.3.3,3.7,1.2,4.2,2.7.5,1.4.3,3.7-.7,6.8l-15.1,47.5-16.4-50.8c-.6-1.9-.8-3.3-.5-4.3.3-.9,1.3-1.5,2.8-1.8l4.8-.8c.6,0,1-.3,1.3-.6s.4-.6.4-1c0-1-.7-1.6-2-1.6h-30.7c-1.3,0-2,.5-2,1.5s.1.8.3,1.1c.3.2.7.4,1.4.6l3,.7c.9,0,1.7.5,2.2,1.1.5.5,1.1,1.5,1.6,3l1.6,4.9-15.6,48-16.2-50c-.8-2.4-1-4-.6-5s1.6-1.6,3.5-2l4-.6c.6-.2,1.1-.4,1.4-.6.3-.3.4-.6.4-1s-.2-.9-.6-1.1c-.3-.3-.8-.4-1.4-.4h-31.7c-.6,0-1.1,0-1.5.4-.3.3-.5.6-.5,1.1s.1.7.3,1c.3.2.7.4,1.2.6l3.3.6c1,.2,1.9.5,2.5,1.1.6.5,1.1,1.5,1.6,3l21.5,64.2c.3,1,.8,1.7,1.3,2.1.6.4,1.3.6,2.1.6h5.8c.7,0,1.4,0,2-.5s1-.9,1.3-1.8l17.7-53.3,17.5,53c.3.9.8,1.6,1.4,2.1.7.4,1.3.6,2.1.6h5.7c.8,0,1.5,0,2.1-.5s1.4-1.3,1.7-2.3h0Z"/>
  <path class="st0" d="M110.4,118.4c5.7,3.2,12.2,4.9,19.8,4.9s14.3-1.6,20.1-4.9c5.9-3.3,10.5-7.8,13.8-13.6,3.3-5.8,5-12.3,5-20s-1.6-14.5-4.9-20.3c-3.2-5.9-7.7-10.5-13.5-13.8-5.7-3.3-12.3-5-19.8-5s-14.4,1.7-20.2,5c-5.8,3.4-10.4,8-13.7,13.9-3.2,5.8-4.9,12.5-4.9,20.1s1.6,14.3,4.9,20.1c3.2,5.8,7.7,10.4,13.4,13.7h0ZM109,67.8c1-5.4,3-9.8,5.8-13s6.4-4.9,10.9-5.4,8.6.4,12.2,2.7c3.6,2.2,6.7,5.9,9.1,10.9,2.5,5,4.2,11.3,5.2,18.9,1,7.5.9,13.9-.2,19.4-1,5.4-3,9.7-5.8,12.8-2.8,3-6.4,4.8-10.7,5.3h0c-4.4.5-8.4-.4-12.1-2.7-3.6-2.3-6.7-6-9.2-11s-4.2-11.2-5.2-18.7c-.9-7.4-.9-13.8,0-19.2h0Z"/>
  <path class="st0" d="M69,121.8c1.1.5,2.2,1,3,1.4s1.6.7,2.3.7,1.2-.2,1.6-.7c.4-.4.7-1.2,1.1-2.3l7.3-31.2c.2-.8.2-1.5,0-1.9s-.6-.7-1.3-.8c-.5,0-1,0-1.4.2s-.7.6-1.1,1.3l-5.8,13c-1.9,4.2-3.8,7.5-5.7,9.8-1.9,2.2-3.9,3.8-6.1,4.7s-4.7,1.3-7.7,1.3h-19.2c-1.9,0-3.4-.3-4.4-1-.9-.7-1.4-1.8-1.4-3.4V13.4c0-.9.3-1.6.8-2.1.6-.5,1.5-.9,2.6-1.1l6.7-1.1h0c1.2-.3,1.8-.9,1.8-1.8s-.2-.9-.5-1.1-.9-.4-1.6-.4H2.3c-.7,0-1.3,0-1.6.4-.3.3-.5.6-.5,1.1,0,.9.6,1.5,1.8,1.8l6.7,1.1c1.1.2,2,.6,2.5,1.1.6.5.9,1.2.9,2.1v100.1c0,.9-.3,1.6-.9,2.1-.5.5-1.4.8-2.5,1.1l-6.7,1.1c-1.2.3-1.8.9-1.8,1.8s.2.8.5,1.1c.4.3.9.4,1.6.4h62.3c1.8,0,3.3.2,4.4.7h0Z"/>
  <path class="st0" d="M492.3,177.2c-.3-.3-.8-.4-1.5-.4h-21.7c-.6,0-1.2.1-1.6.4-.3.3-.5.6-.5,1.1s.1.8.4,1.1.8.5,1.5.7l4.4.7c2.3.4,3.7,1.3,4.2,2.6s.2,3.4-.9,6.4l-18.5,46.9-19.8-49.1c-.9-2.2-1.2-3.9-.9-4.9.4-1.1,1.5-1.8,3.5-2.1l5.1-.7c.7-.2,1.1-.4,1.4-.6.3-.3.4-.6.4-1.1s-.2-.9-.5-1.1-.8-.4-1.5-.4h-33.2c-.6,0-1.1.1-1.5.4-.3.3-.5.6-.5,1.1s.1.7.3,1c.3.2.8.4,1.5.6,2.3.4,4.1,1.3,5.4,2.5,1.4,1.2,2.7,3.1,3.9,5.8l28.6,67.7-5.8,14.4h0c-1.4,3.7-2.8,6.6-4,8.8-1.3,2.2-2.5,3.9-3.6,4.9s-2.2,1.5-3.5,1.5-2.4-.5-3.2-1.6c-.8-1-1.4-2.4-1.6-4.1l-.7-2.8c-.5-2.1-1.4-3.8-2.5-5s-2.6-1.8-4.4-1.8-3.7.7-4.9,2.1c-1.2,1.4-1.8,3.4-1.8,5.9,0,3.6,1.3,6.6,4,9.2,2.7,2.5,6.3,3.8,10.8,3.8s5.8-.7,8-2c2.1-1.3,4.1-3.4,5.9-6.5,1.8-3,3.7-7.1,5.8-12.3l32.2-81.3c1.2-3,2.5-5.1,4-6.3,1.5-1.3,3.5-2.2,6.2-2.7.7-.2,1.2-.4,1.4-.7.3-.3.4-.6.4-1s-.2-.9-.6-1.1h0Z"/>
  <path class="st0" d="M393.4,175c-3.7,0-7.4,1.5-10.9,4.2-3.4,2.6-6.2,6.5-8.4,11.7-.6,1.5-1.1,3.1-1.6,4.8l-.3-17.4h0c0-.9-.2-1.5-.6-1.9-.3-.4-.7-.7-1.3-.7s-.9,0-1.5.2c-.5.1-1.4.4-2.6.8l-16.9,4.8c-.7.2-1.1.5-1.4.7-.3.3-.4.6-.4,1.1s.1.6.3.8c.2.2.6.4,1.1.5h6.2c.6.1,1,.4,1.3.7s.4.8.4,1.6v56.7c0,.9-.2,1.7-.7,2.2-.4.5-1.1.9-2,1.1l-4.6.8c-.6.2-1.1.4-1.4.7s-.4.6-.4,1,.2.7.5,1.1c.4.3.9.4,1.6.4h33.5c.6,0,1.1-.1,1.5-.4.4-.3.6-.6.6-1.1s-.2-.9-.5-1.1c-.3-.3-.7-.5-1.4-.6l-7.8-1.1c-1-.1-1.8-.5-2.3-1.1-.5-.5-.7-1.3-.7-2.3v-35.7c.2-4.7.8-8.7,2-12,1.4-3.9,3.1-6.8,5.2-8.7,2.1-2,4.3-3,6.5-3s3.2.5,4,1.4,1.3,2.3,1.3,4.2v2.5c0,2.5.7,4.4,1.9,5.7,1.3,1.3,3,1.9,5.4,1.9s4.3-.8,5.8-2.5,2.3-4.4,2.3-7.8-1.2-7.9-3.6-10.4-5.7-3.8-10.1-3.8h0Z"/>
  <path class="st0" d="M337.8,247.8l-4.4-.6c-.8-.2-1.5-.5-1.9-1.1s-.7-1.4-.7-2.4v-.9h0v-105.8c0-.7-.2-1.3-.6-1.7s-1-.7-1.7-.7-1,0-1.6.2c-.5.1-1.3.3-2.3.7l-17.1,5.3c-.6.2-1.1.5-1.4.7s-.4.5-.4,1,.1.6.3.9c.3.2.6.4,1.1.4h6.1c.6.1,1,.3,1.3.7s.4.8.4,1.6v36.9c-1.5-1.4-3.1-2.6-4.8-3.7-4.4-2.7-9.6-4.1-15.7-4.1s-12.5,1.6-18,4.9c-5.4,3.2-9.7,7.9-12.9,14s-4.9,13.3-4.9,21.7h0c0,7.4,1.4,13.9,4.1,19.5,2.8,5.5,6.6,9.9,11.3,12.9,4.8,3.1,10.2,4.6,16.3,4.6s10.5-1.3,15.1-4c3.2-1.9,6.4-4.5,9.4-7.8v2.9h0v1.8c.1,1.8.6,3.1,1.5,4s2.2,1.3,3.7,1.3h17.5c.6,0,1.1-.1,1.5-.4.4-.3.6-.6.6-1.1s-.1-.8-.4-1.1-.7-.5-1.4-.6h0ZM307.1,243.7c-3.6,2-7.2,3.1-10.9,3.1s-7.7-1.2-10.9-3.6c-3.2-2.5-5.7-6.1-7.5-11s-2.7-10.9-2.7-18.1,1-14.4,3-19.5c2-5,4.7-8.8,8.1-11.3s7.2-3.7,11.3-3.7,8.5,1.1,12,3.5c2,1.3,3.8,2.9,5.4,4.8v49c-2.5,2.9-5.1,5.2-7.8,6.8h0Z"/>
  <path class="st0" d="M164.4,160.4v-10.4c0-.9.3-1.6.9-2.1.6-.5,1.4-.9,2.5-1.1l6.7-1.1c1.2-.3,1.8-.9,1.8-1.8s-.2-.9-.5-1.1c-.3-.3-.9-.4-1.6-.4h-37.5c-.8,0-1.3.1-1.7.4-.3.3-.5.6-.5,1.1,0,.9.6,1.5,1.8,1.8l6.7,1.1c1.1.2,2,.6,2.5,1.1.6.5.9,1.2.9,2.1v4.2h0v51.7h-52.6v-45h0v-10.9c0-.9.3-1.6.9-2.1s1.4-.9,2.5-1.1l6.7-1.1c1.3-.3,1.9-.9,1.9-1.8s-.2-.9-.6-1.1c-.3-.3-.9-.4-1.6-.4h-37.5c-.8,0-1.3.1-1.7.4-.3.3-.5.6-.5,1.1,0,.9.6,1.5,1.8,1.8l6.7,1.1c1.1.2,2,.6,2.5,1.1.6.5.9,1.2.9,2.1v4.9h0v88.5c0,.9-.3,1.6-.9,2.1-.5.5-1.4.8-2.5,1.1l-6.7,1.1c-1.2.3-1.8.8-1.8,1.7s.2.9.5,1.2c.4.3,1,.4,1.7.4h37.5c.8,0,1.3-.1,1.6-.4.4-.3.6-.7.6-1.2,0-.9-.6-1.4-1.9-1.7l-6.7-1.1c-1.1-.2-1.9-.6-2.5-1.1s-.9-1.3-.9-2.1v-33.7h52.6v33.7c0,.9-.3,1.6-.9,2.1-.5.5-1.4.8-2.5,1.1l-6.7,1.1c-1.2.3-1.8.8-1.8,1.7s.2.9.5,1.2c.4.3,1,.4,1.7.4h37.5c.8,0,1.3-.1,1.6-.4.3-.3.5-.7.5-1.2,0-.9-.6-1.4-1.8-1.7l-6.7-1.1c-1.1-.2-1.9-.6-2.5-1.1s-.9-1.3-.9-2.1v-83h0Z"/>
  <path class="st0" d="M313.3,31.8c3.1,0,5.6-.9,7.6-2.8s3-4.3,3-7.3-1-5.2-3-7.1c-1.9-1.9-4.4-2.9-7.6-2.9s-5.6,1-7.5,2.9-2.9,4.2-2.9,7.1,1,5.3,2.9,7.3c1.9,1.9,4.4,2.8,7.5,2.8Z"/>
  <path class="st0" d="M298.6,55.3h6.1c.6,0,1,.3,1.3.7.2.2.3.5.3.9v3.8l-.2,28.3h0v13.5h0v17.9c0,.7.2,1.3.6,1.7.4.4,1,.7,1.8.7s1,0,1.6-.2c.5,0,1.3-.3,2.4-.7l17-5.3c.7-.2,1.1-.5,1.4-.7s.4-.5.4-1-.1-.6-.3-.9c-.3-.2-.7-.3-1.1-.4h-6.1c-.6,0-1-.3-1.3-.7-.3-.3-.4-.8-.4-1.6v-9h0l.2-36h0v-17.9c0-.7-.2-1.3-.6-1.7s-1-.7-1.8-.7-1,0-1.6.2c-.5,0-1.3.3-2.4.7l-17,5.3c-.7.2-1.1.5-1.4.7s-.4.5-.4,1,.1.6.3.9c.3.2.8.4,1.2.5h0Z"/>
  <path class="st0" d="M246.5,225.8c-.4,0-.5,0-.8.3-.3,0-.6.5-.9,1-1.1,4.9-3.7,8.8-7.7,11.6-3.9,2.8-8.7,4.3-14.2,4.3-8,0-14.6-2.9-19.6-8.7-4.8-5.7-7.3-13.8-7.5-24.4h48.2c1.1-.1,2.1-.5,2.8-1.1.8-.8,1.2-1.8,1.2-3.2,0-5.9-1.3-11.1-3.8-15.7s-6-8.1-10.6-10.7c-4.6-2.6-9.9-4-16.2-4s-13.8,1.8-19.3,5.3c-5.4,3.5-9.7,8.3-12.7,14.4-3,6-4.4,13.2-4.4,20.8s1.5,14.1,4.4,19.7c3,5.6,7.2,9.9,12.4,13,5.3,3,11.5,4.5,18.6,4.5s10.9-1.1,15.4-3.3,8.2-5.3,11-9.1c2.8-3.8,4.4-8.2,4.8-12.9,0-.5,0-1-.2-1.3-.2-.3-.5-.5-.9-.5ZM231.5,206h-35.6c.2-5.1,1.1-9.6,2.4-13.4h0c1.6-4.5,3.9-7.9,6.8-10.3,3-2.4,6.5-3.5,10.5-3.5s8.8,2.2,11.9,6.6c3,4.3,4.5,10.7,4.5,19s0,1.1,0,1.6h-.5Z"/>
</svg>