<?xml version="1.0" encoding="UTF-8"?>
<svg id="Layer_1" data-name="Layer 1" xmlns="http://www.w3.org/2000/svg" viewBox="0 0 820.41 135.74">
  <defs>
    <style>
      .cls-1 {
        fill: #d74326;
      }

      .cls-2 {
        fill: #fff;
      }
    </style>
  </defs>
  <path class="cls-2" d="M409.79,99.67c-.23-.28-.64-.51-1.24-.69-1.66-.37-2.94-.85-3.87-1.45-.87-.6-1.82-1.66-2.83-3.18l-21.87-34.37,10.89-9.88c2.53-2.35,4.9-4.1,7.11-5.25,2.25-1.2,4.67-2.05,7.25-2.55.87-.14,1.45-.32,1.73-.55.28-.28.41-.62.41-1.04,0-.37-.16-.67-.48-.9-.28-.23-.71-.35-1.31-.35h-22.16c-.55,0-.99.11-1.31.35-.28.23-.41.55-.41.97,0,.32.09.6.28.83.18.18.55.35,1.1.48l2.76.48c2.07.41,3.24,1.27,3.52,2.55.28,1.29-.48,2.74-2.28,4.35l-24.99,23.09V2c0-.6-.16-1.08-.48-1.45s-.8-.55-1.45-.55c-.41,0-.87.07-1.38.21-.46.09-1.13.28-2,.55l-14.29,4.42c-.55.18-.94.39-1.17.62-.18.18-.28.46-.28.83,0,.28.09.53.28.76.18.18.51.3.97.35l5.04.07c.55.05.92.21,1.1.48.23.28.34.71.34,1.31v85.93c0,.83-.18,1.47-.55,1.93-.32.41-.85.71-1.59.9l-3.8.69c-.55.09-.97.28-1.24.55-.23.23-.34.51-.34.83,0,.37.11.67.34.9s.6.35,1.1.35h24.92c1.15,0,1.72-.44,1.72-1.31,0-.6-.44-1.04-1.31-1.31l-3.8-.69c-.74-.18-1.29-.51-1.66-.97-.32-.46-.48-1.1-.48-1.93v-19.25l8.46-7.67,15.84,25.47c.97,1.47,1.33,2.58,1.1,3.31-.18.69-.94,1.15-2.28,1.38l-2.97.48c-.46.09-.81.25-1.04.48-.18.23-.28.48-.28.76,0,.37.14.67.41.9.28.23.64.35,1.1.35h26.02c.51,0,.9-.09,1.17-.28.32-.23.48-.53.48-.9,0-.32-.12-.6-.35-.83Z"/>
  <path class="cls-2" d="M298.41,99.32c4.42,2.48,9.46,3.73,15.12,3.73,4.6,0,8.7-.85,12.29-2.55,3.59-1.7,6.56-4.1,8.9-7.18,2.35-3.08,3.84-6.67,4.49-10.77.05-.41-.02-.76-.21-1.03-.14-.28-.37-.44-.69-.48-.28,0-.53.09-.76.28-.18.14-.44.44-.76.9-1.29,3.87-3.52,6.83-6.7,8.9-3.13,2.07-6.83,3.11-11.11,3.11s-8.1-1.08-11.46-3.24c-3.31-2.16-5.94-5.34-7.87-9.53-1.93-4.19-2.9-9.32-2.9-15.39,0-5.06.71-9.46,2.14-13.18,1.47-3.73,3.5-6.63,6.07-8.7,2.58-2.07,5.57-3.11,8.97-3.11s6.33.94,8.35,2.83c2.02,1.84,3.04,4.3,3.04,7.39v3.18c0,2.21.6,3.96,1.79,5.25,1.2,1.24,2.85,1.86,4.97,1.86s3.73-.64,4.97-1.93c1.29-1.33,1.93-3.04,1.93-5.11,0-2.99-.94-5.73-2.83-8.21-1.89-2.53-4.58-4.53-8.07-6-3.45-1.52-7.64-2.28-12.56-2.28-6.21,0-11.67,1.5-16.36,4.49-4.69,2.99-8.35,7.04-10.97,12.15-2.62,5.06-3.94,10.74-3.94,17.05s1.27,12.22,3.8,16.91c2.53,4.65,5.98,8.21,10.35,10.7Z"/>
  <path class="cls-2" d="M260.96,26.64c2.58,0,4.69-.78,6.35-2.35,1.66-1.61,2.48-3.63,2.48-6.07s-.83-4.33-2.48-5.94c-1.61-1.61-3.73-2.42-6.35-2.42s-4.67.81-6.28,2.42c-1.61,1.56-2.42,3.54-2.42,5.94s.81,4.46,2.42,6.07c1.61,1.56,3.7,2.35,6.28,2.35Z"/>
  <path class="cls-1" d="M428.96,73.45c2.58,0,4.69-.78,6.35-2.35,1.66-1.61,2.48-3.63,2.48-6.07s-.83-4.33-2.48-5.94c-1.61-1.61-3.73-2.42-6.35-2.42s-4.67.81-6.28,2.42c-1.61,1.56-2.42,3.54-2.42,5.94s.81,4.46,2.42,6.07c1.61,1.56,3.7,2.35,6.28,2.35Z"/>
  <path class="cls-2" d="M248.68,46.25l5.11.07c.51.05.87.23,1.1.55.23.28.35.71.35,1.31v47.35s.03.07.07.1v10.54c0,.6.16,1.07.48,1.45.31.37.8.55,1.44.55.42,0,.88-.07,1.39-.21.46-.09,1.1-.27,1.94-.55l14.28-8.34c.56-.18.95-.39,1.18-.63.24-.18.35-.46.35-.82,0-.27-.09-.52-.29-.76-.22-.18-.55-.3-.95-.34l-5.11-.08c-.51-.04-.88-.2-1.1-.48-.24-.27-.35-.71-.35-1.31v-3.11h-.06v-51.02c0-.6-.16-1.08-.48-1.45s-.83-.55-1.52-.55c-.37,0-.8.07-1.31.21-.46.09-1.13.28-2,.55l-14.22,4.42c-.55.18-.94.39-1.17.62-.23.18-.35.46-.35.83,0,.28.09.53.28.76.23.18.55.3.97.35Z"/>
  <path class="cls-2" d="M216.99,102.02c.64,0,1.22-.14,1.72-.41.51-.32.87-.87,1.1-1.66l16.29-49.83c.78-2.39,1.59-4.14,2.42-5.25.83-1.15,1.79-1.89,2.9-2.21l2.07-.55c.55-.14.92-.3,1.1-.48.23-.23.34-.51.34-.83,0-.41-.16-.74-.48-.97-.28-.23-.69-.35-1.24-.35h-16.98c-.51,0-.92.12-1.24.35-.28.18-.41.48-.41.9,0,.37.11.67.34.9.23.18.62.35,1.17.48l3.31.55c1.93.28,3.11,1.04,3.52,2.28.46,1.2.28,3.11-.55,5.73l-12.68,39.74-13.69-42.5c-.51-1.61-.64-2.81-.41-3.59.28-.78,1.06-1.29,2.35-1.52l4-.69c.51-.09.87-.25,1.1-.48.23-.23.35-.51.35-.83,0-.87-.55-1.31-1.66-1.31h-25.68c-1.1,0-1.66.41-1.66,1.24,0,.37.09.67.28.9.23.18.62.35,1.17.48l2.55.55c.78.09,1.4.39,1.86.9.46.46.9,1.29,1.31,2.48l1.36,4.13-13.07,40.14-13.56-41.86c-.64-1.98-.81-3.38-.48-4.21.37-.83,1.36-1.38,2.97-1.66l3.38-.48c.55-.14.94-.3,1.17-.48.23-.23.35-.51.35-.83,0-.41-.16-.74-.48-.97-.28-.23-.67-.35-1.17-.35h-26.5c-.51,0-.92.12-1.24.35-.28.23-.41.55-.41.97,0,.32.09.6.28.83.23.18.58.35,1.04.48l2.76.48c.87.14,1.56.44,2.07.9.51.41.97,1.27,1.38,2.55l18.01,53.77c.28.83.64,1.4,1.1,1.73.51.32,1.1.48,1.79.48h4.83c.6,0,1.15-.14,1.66-.41.51-.28.87-.78,1.1-1.52l14.77-44.62,14.63,44.35c.28.78.67,1.36,1.17,1.73.55.32,1.13.48,1.72.48h4.76Z"/>
  <path class="cls-2" d="M126.07,42.31c-4.79-2.81-10.31-4.21-16.57-4.21s-12.03,1.4-16.91,4.21c-4.88,2.81-8.7,6.67-11.46,11.6-2.71,4.88-4.07,10.49-4.07,16.84s1.36,11.96,4.07,16.84,6.47,8.7,11.25,11.46c4.79,2.71,10.31,4.07,16.57,4.07s11.96-1.38,16.84-4.14c4.92-2.76,8.77-6.56,11.53-11.39,2.81-4.88,4.21-10.47,4.21-16.77s-1.38-12.1-4.14-16.98c-2.71-4.92-6.49-8.77-11.32-11.53ZM127.24,84.76c-.87,4.56-2.48,8.12-4.83,10.7-2.35,2.53-5.34,4-8.97,4.42-3.68.41-7.06-.35-10.15-2.28-3.04-1.93-5.61-4.99-7.73-9.18-2.07-4.19-3.52-9.41-4.35-15.67-.78-6.21-.76-11.57.07-16.08.83-4.56,2.42-8.14,4.76-10.77,2.35-2.62,5.38-4.14,9.11-4.56,3.77-.41,7.18.35,10.22,2.28,3.04,1.89,5.59,4.92,7.66,9.11,2.07,4.19,3.52,9.46,4.35,15.81.83,6.26.78,11.66-.14,16.22Z"/>
  <path class="cls-2" d="M57.7,102.22c.97.41,1.77.81,2.42,1.17.69.37,1.33.55,1.93.55.55,0,.99-.18,1.31-.55s.62-1.01.9-1.93l6.07-26.16c.18-.69.18-1.22,0-1.59-.18-.37-.55-.6-1.1-.69-.46-.09-.85-.02-1.17.21-.32.18-.62.55-.9,1.1l-4.9,10.91c-1.61,3.54-3.2,6.28-4.76,8.21-1.56,1.89-3.27,3.2-5.11,3.93-1.84.74-3.98,1.1-6.42,1.1h-16.08c-1.61,0-2.83-.28-3.66-.83-.78-.6-1.17-1.54-1.17-2.83V11.46c0-.74.23-1.31.69-1.73.51-.46,1.24-.78,2.21-.97l5.59-.9c1.01-.23,1.52-.74,1.52-1.52,0-.41-.14-.74-.41-.97-.28-.23-.74-.35-1.38-.35H1.79c-.6,0-1.06.11-1.38.35-.28.23-.41.55-.41.97,0,.78.51,1.29,1.52,1.52l5.59.9c.97.18,1.68.51,2.14.97.51.41.76.99.76,1.73v83.79c0,.74-.25,1.33-.76,1.79-.46.41-1.17.71-2.14.9l-5.59.9c-1.01.23-1.52.74-1.52,1.52,0,.37.14.69.41.97.32.23.78.35,1.38.35h52.18c1.52,0,2.76.18,3.73.55Z"/>
  <path class="cls-2" d="M818.68,40.01h-18.15c-.55,0-.99.11-1.31.35-.28.23-.41.55-.41.97,0,.37.12.67.35.9.28.23.69.41,1.24.55l3.66.62c1.93.37,3.11,1.1,3.52,2.21.46,1.06.21,2.85-.76,5.38l-15.45,39.29-16.58-41.08c-.78-1.89-1.03-3.27-.76-4.14.32-.92,1.29-1.52,2.9-1.79l4.28-.55c.55-.14.94-.3,1.17-.48.23-.23.35-.53.35-.9,0-.41-.14-.74-.41-.97s-.69-.35-1.24-.35h-27.82c-.51,0-.92.11-1.24.35-.28.23-.41.55-.41.97,0,.32.09.6.28.83.23.18.64.34,1.24.48,1.89.37,3.41,1.06,4.56,2.07,1.2.97,2.28,2.58,3.24,4.83l23.95,56.67-4.83,12.08c-1.2,3.08-2.32,5.55-3.38,7.39-1.06,1.89-2.07,3.24-3.04,4.07-.92.83-1.89,1.24-2.9,1.24-1.1,0-2-.44-2.69-1.31-.69-.87-1.15-2.02-1.38-3.45l-.55-2.35c-.46-1.75-1.15-3.15-2.07-4.21-.92-1.01-2.16-1.52-3.73-1.52-1.7,0-3.08.6-4.14,1.79-1.01,1.2-1.52,2.85-1.52,4.97,0,2.99,1.1,5.55,3.31,7.66,2.25,2.12,5.27,3.18,9.04,3.18,2.67,0,4.9-.55,6.69-1.66,1.79-1.06,3.43-2.88,4.9-5.45,1.52-2.53,3.13-5.96,4.83-10.28l26.99-68.06c.97-2.48,2.07-4.26,3.31-5.31s2.97-1.82,5.18-2.28c.6-.14.99-.32,1.17-.55.23-.23.35-.51.35-.83,0-.41-.16-.74-.48-.97-.28-.23-.69-.35-1.24-.35Z"/>
  <path class="cls-2" d="M735.19,38.63c-3.13,0-6.14,1.1-9.04,3.31-2.85,2.21-5.2,5.48-7.04,9.8-.53,1.27-.97,2.64-1.34,4.09l-.25-14.58c-.05-.69-.21-1.2-.48-1.52-.23-.37-.6-.55-1.1-.55-.32,0-.74.07-1.24.21-.46.09-1.2.32-2.21.69l-14.15,4c-.55.18-.94.39-1.17.62s-.35.53-.35.9c0,.28.09.51.28.69.18.18.48.32.9.41l5.18.07c.51.05.87.23,1.1.55.23.28.35.71.35,1.31v47.49c0,.78-.18,1.4-.55,1.86s-.92.76-1.66.9l-3.87.69c-.51.14-.9.32-1.17.55-.23.23-.34.51-.34.83s.14.62.41.9c.32.23.78.35,1.38.35h28.02c.55,0,.97-.12,1.24-.35.32-.23.48-.53.48-.9,0-.41-.14-.74-.41-.97-.23-.23-.62-.39-1.17-.48l-6.56-.9c-.87-.14-1.52-.44-1.93-.9-.41-.46-.62-1.1-.62-1.93v-27.82c0-4.88.57-8.93,1.72-12.15,1.15-3.27,2.6-5.71,4.35-7.32,1.75-1.66,3.57-2.48,5.45-2.48,1.56,0,2.69.39,3.38,1.17.69.78,1.06,1.96,1.1,3.52v2.14c.05,2.07.57,3.66,1.59,4.76,1.06,1.06,2.55,1.59,4.49,1.59s3.59-.71,4.83-2.14c1.29-1.47,1.93-3.66,1.93-6.56,0-3.68-1.01-6.58-3.04-8.7-1.98-2.12-4.81-3.17-8.49-3.17Z"/>
  <path class="cls-2" d="M686.19,99.57l-3.8-.69c-.69-.14-1.22-.44-1.59-.9-.37-.51-.55-1.17-.55-2V12.99c0-.6-.16-1.08-.48-1.45s-.8-.55-1.45-.55c-.41,0-.87.07-1.38.21-.46.09-1.1.28-1.93.55l-14.29,8.34c-.55.18-.94.39-1.17.62-.23.18-.35.46-.35.83,0,.28.09.53.28.76.23.18.55.3.97.35l5.11.07c.51.05.87.21,1.1.48s.35.71.35,1.31v20.69c-1.23-1.17-2.56-2.22-4-3.12-3.68-2.3-8.05-3.45-13.11-3.45-5.48,0-10.49,1.38-15.05,4.14-4.51,2.71-8.12,6.63-10.84,11.73-2.71,5.11-4.07,11.16-4.07,18.15,0,6.21,1.15,11.64,3.45,16.29,2.35,4.65,5.5,8.26,9.46,10.84,4,2.58,8.56,3.87,13.67,3.87,4.56,0,8.77-1.1,12.63-3.31,2.74-1.6,5.41-3.83,8.01-6.68v4.12c0,1.47.37,2.58,1.1,3.31.78.74,1.82,1.1,3.11,1.1h14.63c.55,0,.96-.12,1.24-.35.32-.23.48-.53.48-.9s-.11-.67-.34-.9c-.23-.23-.62-.39-1.17-.48ZM660.44,96.05c-3.04,1.7-6.07,2.55-9.11,2.55-3.41,0-6.44-1.01-9.11-3.04-2.67-2.07-4.76-5.13-6.28-9.18-1.52-4.05-2.28-9.09-2.28-15.12,0-6.63.83-12.06,2.48-16.29,1.7-4.23,3.96-7.39,6.76-9.46,2.85-2.07,6.01-3.11,9.46-3.11,3.73,0,7.09.97,10.08,2.9,1.7,1.1,3.21,2.49,4.56,4.1v40.99c-2.08,2.44-4.27,4.33-6.56,5.65Z"/>
  <path class="cls-2" d="M607.95,66.72c.69-.64,1.03-1.54,1.03-2.69,0-4.97-1.06-9.36-3.17-13.18-2.07-3.82-5.02-6.81-8.83-8.97-3.82-2.21-8.33-3.31-13.53-3.31-6.17,0-11.55,1.47-16.15,4.42-4.56,2.94-8.1,6.97-10.63,12.08-2.48,5.06-3.73,10.86-3.73,17.39s1.24,11.8,3.73,16.5c2.53,4.69,6.01,8.33,10.42,10.91,4.46,2.53,9.64,3.8,15.53,3.8,4.79,0,9.09-.92,12.91-2.76,3.82-1.89,6.88-4.44,9.18-7.66,2.35-3.22,3.68-6.83,4-10.84.05-.46-.02-.83-.21-1.1s-.44-.41-.76-.41c-.23,0-.46.09-.69.28-.23.14-.48.41-.76.83-.97,4.1-3.11,7.34-6.42,9.73-3.31,2.39-7.27,3.59-11.87,3.59-6.72,0-12.19-2.42-16.43-7.25-4.06-4.73-6.13-11.55-6.26-20.43h39.59c1.33,0,2.35-.3,3.04-.9ZM593.38,65.06h-28.03c.13-4.54.76-8.52,1.95-11.87,1.38-3.77,3.29-6.65,5.73-8.63,2.48-1.98,5.41-2.97,8.77-2.97,4.1,0,7.41,1.84,9.94,5.52,2.53,3.64,3.8,8.95,3.8,15.94,0,1.33-.71,2-2.14,2Z"/>
  <path class="cls-2" d="M535.44,10.26c.51-.46,1.22-.78,2.14-.97l5.59-.9c1.01-.23,1.52-.74,1.52-1.52,0-.41-.14-.74-.41-.97-.28-.23-.74-.34-1.38-.34h-31.41c-.64,0-1.13.11-1.45.34-.28.23-.41.55-.41.97,0,.78.51,1.29,1.52,1.52l5.59.9c.97.18,1.68.51,2.14.97.51.41.76.99.76,1.73v52.69h-44.04V11.98c0-.74.25-1.31.76-1.73.51-.46,1.22-.78,2.14-.97l5.59-.9c1.06-.23,1.59-.74,1.59-1.52,0-.41-.16-.74-.48-.97-.28-.23-.74-.34-1.38-.34h-31.41c-.64,0-1.13.11-1.45.34-.28.23-.41.55-.41.97,0,.78.51,1.29,1.52,1.52l5.59.9c.97.18,1.68.51,2.14.97.51.41.76.99.76,1.73v83.79c0,.74-.25,1.33-.76,1.79-.46.41-1.17.71-2.14.9l-5.59.9c-1.01.23-1.52.71-1.52,1.45,0,.41.14.76.41,1.03.32.23.81.35,1.45.35h31.41c.64,0,1.1-.12,1.38-.35.32-.28.48-.62.48-1.03,0-.74-.53-1.22-1.59-1.45l-5.59-.9c-.92-.18-1.63-.48-2.14-.9-.51-.46-.76-1.06-.76-1.79v-28.19h44.04v28.19c0,.74-.25,1.33-.76,1.79-.46.41-1.17.71-2.14.9l-5.59.9c-1.01.23-1.52.71-1.52,1.45,0,.41.14.76.41,1.03.32.23.81.35,1.45.35h31.41c.64,0,1.1-.12,1.38-.35.28-.28.41-.62.41-1.03,0-.74-.51-1.22-1.52-1.45l-5.59-.9c-.92-.18-1.63-.48-2.14-.9-.51-.46-.76-1.06-.76-1.79V11.98c0-.74.25-1.31.76-1.73Z"/>
</svg>