<?xml version="1.0" encoding="UTF-8"?>
<svg id="Layer_1" data-name="Layer 1" xmlns="http://www.w3.org/2000/svg" viewBox="0 0 500 291.41">
  <defs>
    <style>
      .cls-1 {
        fill: #fff;
      }
    </style>
  </defs>
  <path class="cls-1" d="M497.19,120.93c-.28-.34-.78-.61-1.51-.84-2.01-.45-3.57-1.03-4.69-1.76-1.06-.73-2.2-2.01-3.43-3.85l-26.53-41.7,13.22-11.98c3.07-2.85,5.95-4.97,8.63-6.36,2.74-1.45,5.67-2.48,8.79-3.1,1.06-.17,1.76-.39,2.09-.67.33-.34.5-.75.5-1.26,0-.45-.2-.81-.59-1.09-.34-.28-.86-.42-1.59-.42h-26.88c-.67,0-1.2.14-1.59.42-.33.28-.5.67-.5,1.17,0,.39.11.73.34,1,.22.22.67.42,1.34.59l3.35.59c2.51.5,3.93,1.54,4.27,3.1.34,1.56-.59,3.32-2.76,5.28l-30.32,28.02V2.43c0-.73-.2-1.31-.59-1.76s-.98-.67-1.76-.67c-.5,0-1.06.08-1.67.25-.56.11-1.37.34-2.43.67l-17.33,5.36c-.67.22-1.15.47-1.42.75-.22.22-.34.56-.34,1.01,0,.34.11.64.34.92.22.22.61.36,1.17.42l6.11.08c.67.06,1.12.25,1.34.59.28.33.42.87.42,1.59v104.26c0,1-.22,1.79-.67,2.34-.39.5-1.03.87-1.93,1.09l-4.61.84c-.67.11-1.17.34-1.51.67-.28.28-.42.61-.42,1,0,.45.14.81.42,1.09s.73.42,1.34.42h30.23c1.4,0,2.09-.53,2.09-1.59,0-.73-.53-1.26-1.59-1.59l-4.61-.84c-.89-.22-1.56-.61-2.01-1.17-.39-.56-.59-1.34-.59-2.34v-23.36l10.26-9.3,19.22,30.9c1.17,1.79,1.62,3.13,1.34,4.02-.22.84-1.15,1.4-2.76,1.67l-3.6.59c-.56.11-.98.31-1.26.59-.22.28-.33.59-.33.92,0,.45.17.81.5,1.09.33.28.78.42,1.34.42h31.57c.61,0,1.09-.11,1.42-.33.39-.28.59-.64.59-1.09,0-.39-.14-.73-.42-1.01Z"/>
  <path class="cls-1" d="M362.06,120.51c5.36,3.01,11.47,4.52,18.34,4.52,5.58,0,10.55-1.03,14.91-3.1,4.35-2.07,7.96-4.97,10.8-8.71,2.85-3.74,4.66-8.1,5.44-13.06.06-.5-.03-.92-.25-1.26-.17-.34-.45-.53-.84-.59-.33,0-.64.11-.92.34-.22.17-.53.53-.92,1.09-1.56,4.69-4.27,8.29-8.12,10.8-3.8,2.51-8.29,3.77-13.48,3.77s-9.83-1.31-13.9-3.94c-4.02-2.62-7.2-6.48-9.55-11.56-2.34-5.08-3.52-11.31-3.52-18.67,0-6.14.86-11.47,2.59-16,1.79-4.52,4.24-8.04,7.37-10.55,3.13-2.51,6.76-3.77,10.89-3.77s7.68,1.14,10.13,3.43c2.46,2.23,3.68,5.22,3.68,8.96v3.85c0,2.68.73,4.8,2.18,6.36,1.45,1.51,3.46,2.26,6.03,2.26s4.52-.78,6.03-2.34c1.56-1.62,2.34-3.68,2.34-6.2,0-3.63-1.15-6.95-3.43-9.97-2.29-3.07-5.55-5.5-9.8-7.29-4.19-1.84-9.27-2.76-15.24-2.76-7.54,0-14.15,1.81-19.85,5.44-5.69,3.63-10.13,8.54-13.31,14.74-3.18,6.14-4.77,13.04-4.77,20.68s1.54,14.82,4.61,20.52c3.07,5.64,7.26,9.97,12.56,12.98Z"/>
  <path class="cls-1" d="M316.63,32.33c3.13,0,5.69-.95,7.7-2.85,2.01-1.95,3.01-4.41,3.01-7.37s-1-5.25-3.01-7.2c-1.95-1.95-4.52-2.93-7.7-2.93s-5.67.98-7.62,2.93c-1.95,1.9-2.93,4.3-2.93,7.2s.98,5.42,2.93,7.37c1.95,1.9,4.49,2.85,7.62,2.85Z"/>
  <path class="cls-1" d="M301.72,56.11l6.2.08c.61.06,1.06.28,1.34.67.28.34.42.87.42,1.59v57.45s.04.08.09.12v12.79c0,.73.19,1.3.59,1.76.38.44.97.67,1.75.67.51,0,1.06-.08,1.68-.25.56-.11,1.33-.33,2.35-.67l17.32-10.12c.68-.22,1.16-.48,1.43-.76.29-.22.43-.56.43-1,0-.33-.11-.63-.35-.92-.27-.22-.67-.36-1.16-.41l-6.2-.1c-.62-.05-1.06-.24-1.33-.59-.29-.33-.43-.86-.43-1.59v-3.78h-.08v-61.9c0-.73-.2-1.31-.59-1.76s-1-.67-1.84-.67c-.45,0-.98.08-1.59.25-.56.11-1.37.34-2.43.67l-17.25,5.36c-.67.22-1.14.47-1.42.75-.28.22-.42.56-.42,1,0,.34.11.64.33.92.28.22.67.36,1.17.42Z"/>
  <path class="cls-1" d="M263.27,123.77c.78,0,1.48-.17,2.09-.5.61-.39,1.06-1.06,1.34-2.01l19.76-60.46c.95-2.9,1.93-5.02,2.93-6.36,1-1.4,2.18-2.29,3.52-2.68l2.51-.67c.67-.17,1.12-.36,1.34-.59.28-.28.42-.61.42-1.01,0-.5-.19-.89-.59-1.17-.33-.28-.84-.42-1.51-.42h-20.6c-.61,0-1.12.14-1.51.42-.33.22-.5.59-.5,1.09,0,.45.14.81.42,1.09.28.22.75.42,1.42.59l4.02.67c2.34.34,3.77,1.26,4.27,2.76.56,1.45.34,3.77-.67,6.95l-15.39,48.22-16.61-51.57c-.61-1.95-.78-3.41-.5-4.35.34-.95,1.28-1.56,2.85-1.84l4.86-.84c.61-.11,1.06-.31,1.34-.59.28-.28.42-.61.42-1.01,0-1.06-.67-1.59-2.01-1.59h-31.15c-1.34,0-2.01.5-2.01,1.51,0,.45.11.81.33,1.09.28.22.75.42,1.42.59l3.1.67c.95.11,1.7.47,2.26,1.09.56.56,1.09,1.56,1.59,3.01l1.65,5.02-15.85,48.71-16.45-50.79c-.78-2.4-.98-4.1-.59-5.11.45-1.01,1.65-1.67,3.6-2.01l4.1-.59c.67-.17,1.14-.36,1.42-.59.28-.28.42-.61.42-1.01,0-.5-.2-.89-.59-1.17-.33-.28-.81-.42-1.42-.42h-32.16c-.61,0-1.12.14-1.51.42-.33.28-.5.67-.5,1.17,0,.39.11.73.33,1.01.28.22.7.42,1.26.59l3.35.59c1.06.17,1.9.53,2.51,1.09.61.5,1.17,1.54,1.67,3.1l21.86,65.24c.33,1.01.78,1.7,1.34,2.09.61.39,1.34.59,2.18.59h5.86c.73,0,1.4-.17,2.01-.5.61-.33,1.06-.95,1.34-1.84l17.92-54.14,17.75,53.8c.33.95.81,1.65,1.42,2.09.67.39,1.37.59,2.09.59h5.78Z"/>
  <path class="cls-1" d="M152.96,51.34c-5.81-3.41-12.51-5.11-20.1-5.11s-14.6,1.7-20.52,5.11c-5.92,3.41-10.55,8.1-13.9,14.07-3.29,5.92-4.94,12.73-4.94,20.43s1.65,14.52,4.94,20.43,7.84,10.55,13.65,13.9c5.81,3.29,12.51,4.94,20.1,4.94s14.52-1.67,20.43-5.02c5.97-3.35,10.64-7.96,13.99-13.82,3.41-5.92,5.11-12.7,5.11-20.35s-1.67-14.68-5.02-20.6c-3.29-5.97-7.87-10.64-13.73-13.99ZM154.38,102.84c-1.06,5.53-3.01,9.85-5.86,12.98-2.85,3.07-6.48,4.86-10.89,5.36-4.47.5-8.57-.42-12.31-2.76-3.68-2.34-6.81-6.06-9.38-11.14-2.51-5.08-4.27-11.42-5.28-19.01-.95-7.54-.92-14.04.08-19.51,1-5.53,2.93-9.88,5.78-13.06,2.85-3.18,6.53-5.02,11.05-5.53,4.58-.5,8.71.42,12.39,2.76,3.68,2.29,6.78,5.97,9.3,11.05,2.51,5.08,4.27,11.47,5.28,19.18,1,7.59.95,14.15-.17,19.68Z"/>
  <path class="cls-1" d="M70.01,124.03c1.17.5,2.15.98,2.93,1.42.84.45,1.62.67,2.34.67.67,0,1.2-.22,1.59-.67s.75-1.23,1.09-2.34l7.37-31.74c.22-.84.22-1.48,0-1.93-.22-.45-.67-.73-1.34-.84-.56-.11-1.03-.03-1.42.25-.39.22-.75.67-1.09,1.34l-5.95,13.23c-1.95,4.3-3.88,7.62-5.78,9.97-1.9,2.29-3.96,3.88-6.2,4.77-2.23.89-4.83,1.34-7.79,1.34h-19.51c-1.95,0-3.43-.34-4.44-1.01-.95-.73-1.42-1.87-1.42-3.43V13.9c0-.89.28-1.59.84-2.09.61-.56,1.51-.95,2.68-1.17l6.78-1.09c1.23-.28,1.84-.89,1.84-1.84,0-.5-.17-.89-.5-1.17-.33-.28-.89-.42-1.67-.42H2.18c-.73,0-1.28.14-1.67.42-.33.28-.5.67-.5,1.17,0,.95.61,1.56,1.84,1.84l6.78,1.09c1.17.22,2.04.61,2.6,1.17.61.5.92,1.2.92,2.09v101.67c0,.89-.31,1.62-.92,2.18-.56.5-1.42.87-2.6,1.09l-6.78,1.09c-1.23.28-1.84.89-1.84,1.84,0,.45.17.84.5,1.17.39.28.95.42,1.67.42h63.31c1.84,0,3.35.22,4.52.67Z"/>
  <path class="cls-1" d="M490.74,175.25h-22.02c-.67,0-1.2.14-1.59.42-.34.28-.5.67-.5,1.17,0,.45.14.81.42,1.09.33.28.84.5,1.51.67l4.44.75c2.34.45,3.77,1.34,4.27,2.68.56,1.28.25,3.46-.92,6.53l-18.74,47.66-20.11-49.84c-.95-2.29-1.26-3.96-.92-5.02.39-1.12,1.56-1.84,3.52-2.18l5.19-.67c.67-.17,1.14-.36,1.42-.59.28-.28.42-.64.42-1.09,0-.5-.17-.89-.5-1.17s-.84-.42-1.51-.42h-33.75c-.61,0-1.12.14-1.51.42-.33.28-.5.67-.5,1.17,0,.39.11.73.33,1.01.28.22.78.42,1.51.59,2.29.45,4.13,1.28,5.53,2.51,1.45,1.17,2.76,3.13,3.94,5.86l29.06,68.76-5.86,14.65c-1.45,3.74-2.82,6.73-4.1,8.96-1.28,2.29-2.51,3.93-3.68,4.94-1.12,1-2.29,1.51-3.52,1.51-1.34,0-2.43-.53-3.27-1.59-.84-1.06-1.4-2.46-1.67-4.19l-.67-2.85c-.56-2.12-1.4-3.83-2.51-5.11-1.12-1.23-2.62-1.84-4.52-1.84-2.07,0-3.74.73-5.02,2.18-1.23,1.45-1.84,3.46-1.84,6.03,0,3.63,1.34,6.73,4.02,9.3,2.74,2.57,6.39,3.85,10.97,3.85,3.24,0,5.94-.67,8.12-2.01,2.18-1.28,4.16-3.49,5.95-6.62,1.84-3.07,3.8-7.23,5.86-12.48l32.74-82.57c1.17-3.01,2.51-5.16,4.02-6.45s3.6-2.21,6.28-2.76c.73-.17,1.2-.39,1.42-.67.28-.28.42-.61.42-1.01,0-.5-.2-.89-.59-1.17-.34-.28-.84-.42-1.51-.42Z"/>
  <path class="cls-1" d="M392.61,173.58c-3.8,0-7.45,1.34-10.97,4.02-3.46,2.68-6.31,6.64-8.54,11.89-.64,1.54-1.17,3.2-1.63,4.96l-.3-17.69c-.06-.84-.25-1.45-.59-1.84-.28-.45-.73-.67-1.34-.67-.39,0-.89.08-1.51.25-.56.11-1.45.39-2.68.84l-17.17,4.86c-.67.22-1.14.47-1.42.75s-.42.64-.42,1.09c0,.34.11.61.34.84.22.22.59.39,1.09.5l6.28.08c.61.06,1.06.28,1.34.67.28.34.42.87.42,1.59v57.62c0,.95-.22,1.7-.67,2.26s-1.12.92-2.01,1.09l-4.69.84c-.61.17-1.09.39-1.42.67-.28.28-.42.61-.42,1.01s.17.75.5,1.09c.39.28.95.42,1.67.42h34c.67,0,1.17-.14,1.51-.42.39-.28.59-.64.59-1.09,0-.5-.17-.89-.5-1.17-.28-.28-.75-.48-1.42-.59l-7.96-1.09c-1.06-.17-1.84-.53-2.34-1.09-.5-.56-.75-1.34-.75-2.34v-33.75c0-5.92.7-10.83,2.09-14.74,1.4-3.96,3.16-6.92,5.28-8.88,2.12-2.01,4.33-3.01,6.61-3.01,1.9,0,3.27.47,4.1,1.42.84.95,1.28,2.37,1.34,4.27v2.6c.06,2.51.7,4.44,1.93,5.78,1.28,1.28,3.1,1.93,5.44,1.93s4.35-.87,5.86-2.6c1.56-1.79,2.34-4.44,2.34-7.96,0-4.47-1.23-7.98-3.68-10.55-2.4-2.57-5.84-3.85-10.3-3.85Z"/>
  <path class="cls-1" d="M336.33,247.52l-4.6-.84c-.84-.17-1.48-.53-1.93-1.09-.45-.61-.67-1.42-.67-2.43v-100.7c0-.73-.2-1.31-.59-1.76s-.98-.67-1.76-.67c-.5,0-1.06.08-1.67.25-.56.11-1.34.34-2.34.67l-17.34,10.12c-.67.22-1.14.47-1.42.75-.28.22-.42.56-.42,1,0,.34.11.64.33.92.28.22.67.36,1.17.42l6.2.08c.61.06,1.06.25,1.34.59s.42.87.42,1.59v25.11c-1.49-1.42-3.1-2.69-4.86-3.79-4.47-2.79-9.77-4.19-15.91-4.19-6.64,0-12.73,1.67-18.26,5.02-5.47,3.29-9.86,8.04-13.15,14.24-3.29,6.2-4.94,13.54-4.94,22.03,0,7.54,1.4,14.12,4.19,19.76,2.85,5.64,6.67,10.02,11.47,13.15,4.86,3.13,10.38,4.69,16.58,4.69,5.53,0,10.64-1.34,15.33-4.02,3.32-1.94,6.56-4.65,9.71-8.1v5c0,1.79.45,3.13,1.34,4.02.95.89,2.2,1.34,3.77,1.34h17.76c.67,0,1.17-.14,1.51-.42.39-.28.59-.64.59-1.09s-.14-.81-.42-1.09c-.28-.28-.75-.47-1.42-.59ZM305.09,243.25c-3.68,2.07-7.37,3.1-11.05,3.1-4.13,0-7.82-1.23-11.05-3.69-3.24-2.51-5.78-6.23-7.62-11.14-1.84-4.91-2.76-11.03-2.76-18.34,0-8.04,1-14.63,3.01-19.76,2.07-5.14,4.8-8.96,8.21-11.47,3.46-2.51,7.29-3.77,11.47-3.77,4.52,0,8.6,1.17,12.23,3.52,2.07,1.34,3.89,3.02,5.53,4.97v49.73c-2.53,2.97-5.18,5.25-7.96,6.85Z"/>
  <path class="cls-1" d="M244.57,207.66c.84-.78,1.26-1.87,1.26-3.27,0-6.03-1.28-11.36-3.85-16-2.51-4.63-6.09-8.26-10.72-10.89-4.63-2.68-10.1-4.02-16.41-4.02-7.48,0-14.01,1.79-19.6,5.36-5.53,3.57-9.83,8.46-12.9,14.66-3.01,6.14-4.52,13.18-4.52,21.1s1.51,14.32,4.52,20.02c3.07,5.69,7.29,10.11,12.65,13.23,5.42,3.07,11.7,4.6,18.84,4.6,5.81,0,11.03-1.12,15.66-3.35,4.63-2.29,8.35-5.39,11.14-9.29,2.85-3.91,4.47-8.29,4.86-13.15.06-.56-.03-1.01-.25-1.34s-.53-.5-.92-.5c-.28,0-.56.11-.84.34-.28.17-.59.5-.92,1-1.17,4.97-3.77,8.91-7.79,11.81-4.02,2.9-8.82,4.35-14.4,4.35-8.15,0-14.79-2.93-19.93-8.79-4.92-5.74-7.44-14.02-7.59-24.79h48.04c1.62,0,2.85-.36,3.68-1.09ZM226.9,205.65h-34.01c.16-5.51.92-10.34,2.36-14.4,1.67-4.58,3.99-8.07,6.95-10.47,3.01-2.4,6.56-3.6,10.64-3.6,4.97,0,8.99,2.23,12.06,6.7,3.07,4.41,4.61,10.86,4.61,19.35,0,1.62-.87,2.43-2.6,2.43Z"/>
  <path class="cls-1" d="M160.23,150.27c.61-.56,1.48-.95,2.6-1.17l6.78-1.09c1.23-.28,1.84-.89,1.84-1.84,0-.5-.17-.89-.5-1.17-.33-.28-.89-.42-1.67-.42h-38.1c-.78,0-1.37.14-1.76.42-.33.28-.5.67-.5,1.17,0,.95.61,1.56,1.84,1.84l6.78,1.09c1.17.22,2.04.61,2.6,1.17.61.5.92,1.2.92,2.09v52.82h-53.43v-52.82c0-.89.31-1.59.92-2.09.61-.56,1.48-.95,2.6-1.17l6.78-1.09c1.28-.28,1.93-.89,1.93-1.84,0-.5-.2-.89-.59-1.17-.33-.28-.89-.42-1.67-.42h-38.1c-.78,0-1.37.14-1.76.42-.33.28-.5.67-.5,1.17,0,.95.61,1.56,1.84,1.84l6.78,1.09c1.17.22,2.04.61,2.6,1.17.61.5.92,1.2.92,2.09v90.56c0,.89-.31,1.62-.92,2.18-.56.5-1.42.87-2.6,1.09l-6.78,1.09c-1.23.28-1.84.87-1.84,1.76,0,.5.17.92.5,1.26.39.28.98.42,1.76.42h38.1c.78,0,1.34-.14,1.67-.42.39-.34.59-.75.59-1.26,0-.89-.64-1.48-1.93-1.76l-6.78-1.09c-1.12-.22-1.98-.59-2.6-1.09-.61-.56-.92-1.28-.92-2.18v-34.2h53.43v34.2c0,.89-.31,1.62-.92,2.18-.56.5-1.42.87-2.6,1.09l-6.78,1.09c-1.23.28-1.84.87-1.84,1.76,0,.5.17.92.5,1.26.39.28.98.42,1.76.42h38.1c.78,0,1.34-.14,1.67-.42.34-.34.5-.75.5-1.26,0-.89-.61-1.48-1.84-1.76l-6.78-1.09c-1.12-.22-1.98-.59-2.6-1.09-.61-.56-.92-1.28-.92-2.18v-90.56c0-.89.31-1.59.92-2.09Z"/>
</svg>