<?xml version="1.0" encoding="UTF-8"?>
<svg id="Layer_1" data-name="Layer 1" xmlns="http://www.w3.org/2000/svg" viewBox="0 0 643.66 265.67">
  <defs>
    <style>
      .cls-1 {
        fill: #fff;
      }
    </style>
  </defs>
  <path class="cls-1" d="M42.63,5.67c9.22,0,17.27,1.61,24.15,4.83,6.89,3.21,12.22,7.76,16,13.65,3.78,5.89,5.67,12.72,5.67,20.48s-1.86,14.61-5.58,20.5c-3.72,5.88-9.06,10.45-16,13.73-6.93,3.28-15.01,4.92-24.23,4.92h-13.48v38.48H0V5.67h42.63ZM41.29,58.96c5.55,0,9.86-1.33,12.92-4,3.05-2.67,4.58-6.11,4.58-10.33s-1.53-7.48-4.58-10.15c-3.06-2.67-7.36-4-12.92-4h-12.15v28.48h12.15Z"/>
  <path class="cls-1" d="M133.72,124.42c-8.32,0-16.18-1.83-23.56-5.5-7.39-3.67-13.33-8.94-17.83-15.81-4.49-6.89-6.73-14.94-6.73-24.17s2.24-17.09,6.73-23.98c4.5-6.89,10.44-12.19,17.83-15.9,7.39-3.72,15.24-5.58,23.56-5.58s16.16,1.86,23.48,5.58c7.33,3.71,13.25,9.01,17.75,15.9,4.5,6.89,6.75,14.89,6.75,23.98s-2.25,17.28-6.75,24.17c-4.5,6.88-10.42,12.15-17.75,15.81-7.32,3.67-15.15,5.5-23.48,5.5ZM133.72,99.6c6,0,10.92-1.94,14.75-5.83,3.83-3.89,5.75-8.83,5.75-14.83s-1.92-10.78-5.75-14.73c-3.83-3.94-8.75-5.92-14.75-5.92s-10.9,1.97-14.73,5.92c-3.83,3.95-5.75,8.85-5.75,14.73s1.92,10.95,5.75,14.83c3.83,3.89,8.74,5.83,14.73,5.83Z"/>
  <path class="cls-1" d="M213.5,122.25h-27.81V2.33h27.81v119.92Z"/>
  <path class="cls-1" d="M251.3,122.25h-27.81V35.65h27.81v86.6ZM251.64,22.31h-28.65V0h28.65v22.31Z"/>
  <path class="cls-1" d="M318.59,60.13h-19.81v24.31c0,4.11,1.13,7.33,3.4,9.67,2.28,2.33,5.47,3.5,9.58,3.5h6.83v24.65h-15.31c-10.33,0-18.31-2.88-23.92-8.65-5.61-5.78-8.42-13.78-8.42-24v-29.48h-14.15v-24.48h14.15V12.65h27.83v23h19.81v24.48Z"/>
  <path class="cls-1" d="M351.89,122.25h-27.81V35.65h27.81v86.6ZM352.23,22.31h-28.65V0h28.65v22.31Z"/>
  <path class="cls-1" d="M403.01,124.42c-8.21,0-15.98-1.83-23.31-5.5s-13.25-8.94-17.75-15.81c-4.49-6.89-6.73-14.94-6.73-24.17s2.24-17.09,6.73-23.98c4.5-6.89,10.42-12.19,17.75-15.9,7.33-3.72,15.1-5.58,23.31-5.58,7,0,13.67,1.33,20,4,6.33,2.66,11.82,6.62,16.48,11.9,4.67,5.28,7.89,11.75,9.67,19.42h-28.15c-3.89-7.11-9.89-10.67-18-10.67-5.88,0-10.7,1.97-14.48,5.92-3.78,3.95-5.67,8.91-5.67,14.9s1.89,11,5.67,15c3.78,4,8.6,6,14.48,6,8,0,14-3.55,18-10.67h28.15c-1.78,7.67-4.97,14.14-9.58,19.42-4.6,5.27-10.09,9.2-16.48,11.81-6.39,2.61-13.08,3.92-20.08,3.92Z"/>
  <path class="cls-1" d="M523.61,35.65h25.65v86.6h-25.65v-8.5c-6.45,7.11-15.49,10.67-27.15,10.67-7.11,0-13.95-1.86-20.5-5.58-6.56-3.72-11.89-9.05-16-15.98-4.1-6.94-6.15-14.92-6.15-23.92s2.05-16.95,6.15-23.9c4.11-6.94,9.44-12.27,16-15.98,6.55-3.72,13.39-5.58,20.5-5.58,11.54,0,20.59,3.55,27.15,10.65v-8.48ZM502.11,99.77c6,0,10.97-1.97,14.92-5.92s5.92-8.92,5.92-14.92-1.97-10.95-5.92-14.9c-3.95-3.94-8.92-5.92-14.92-5.92s-10.95,1.97-14.9,5.92-5.92,8.91-5.92,14.9,1.97,10.97,5.92,14.92c3.94,3.95,8.91,5.92,14.9,5.92Z"/>
  <path class="cls-1" d="M587.05,122.25h-27.81V2.33h27.81v119.92Z"/>
  <path class="cls-1" d="M69.6,201.05c6.22,2.33,11.08,5.86,14.58,10.58,3.5,4.71,5.25,10.29,5.25,16.73,0,10.45-3.97,18.92-11.92,25.42-7.93,6.49-19.56,9.73-34.9,9.73H0v-116.58h40.79c13.78,0,24.49,2.78,32.15,8.33,7.67,5.54,11.5,13.2,11.5,22.98,0,4.99-1.36,9.45-4.08,13.4-2.72,3.95-6.31,7.08-10.75,9.42ZM29.15,169.57v24.48h10.81c4.89,0,8.69-1.14,11.42-3.42,2.72-2.28,4.08-5.25,4.08-8.92s-1.36-6.45-4.08-8.73c-2.72-2.28-6.53-3.42-11.42-3.42h-10.81ZM43.29,240.86c5.11,0,9.11-1.25,12-3.75,2.89-2.5,4.33-5.64,4.33-9.42s-1.42-7.05-4.25-9.5c-2.83-2.44-6.86-3.67-12.08-3.67h-14.15v26.33h14.15Z"/>
  <path class="cls-1" d="M135.22,265.67c-8.66,0-16.18-1.75-22.56-5.25-6.39-3.5-11.25-8.44-14.58-14.81-3.32-6.39-4.98-13.8-4.98-22.25v-46.46h27.81v47.29c0,5.22,1.3,9.31,3.92,12.25,2.61,2.95,6.07,4.42,10.4,4.42s7.8-1.47,10.42-4.42c2.61-2.94,3.92-7.03,3.92-12.25v-47.29h27.81v46.46c0,8.45-1.67,15.86-5,22.25-3.33,6.38-8.2,11.31-14.58,14.81-6.38,3.5-13.9,5.25-22.56,5.25Z"/>
  <path class="cls-1" d="M221.67,265.67c-7.89,0-14.78-1.31-20.67-3.92-5.89-2.61-10.53-6.19-13.92-10.73-3.38-4.55-5.29-9.67-5.73-15.33h26.31c.33,2.67,1.69,4.89,4.08,6.67,2.39,1.78,5.64,2.67,9.75,2.67,3.54,0,6.28-.58,8.23-1.75,1.94-1.17,2.92-2.92,2.92-5.25s-1.31-4.08-3.92-5.25c-2.6-1.17-6.68-2.3-12.23-3.42-6.67-1.44-12.2-3.03-16.58-4.75-4.39-1.72-8.2-4.49-11.42-8.31-3.21-3.83-4.81-9.08-4.81-15.75,0-4.89,1.55-9.28,4.65-13.17,3.11-3.89,7.44-6.96,13-9.23,5.55-2.28,11.83-3.42,18.83-3.42,6.43,0,12.4,1.22,17.9,3.67,5.5,2.43,9.97,5.87,13.42,10.31,3.44,4.45,5.33,9.45,5.67,15h-26c-.22-2.55-1.36-4.61-3.42-6.17-2.04-1.55-4.73-2.33-8.06-2.33-3,0-5.31.5-6.92,1.5-1.61,1-2.42,2.45-2.42,4.33,0,2.22,1.25,3.86,3.75,4.92,2.5,1.06,6.57,2.25,12.23,3.58,6.67,1.45,12.19,3,16.58,4.67,4.39,1.66,8.19,4.34,11.4,8.06,3.22,3.72,4.83,8.81,4.83,15.25,0,8.77-3.39,15.65-10.17,20.65-6.77,5-15.86,7.5-27.29,7.5Z"/>
  <path class="cls-1" d="M292.6,263.51h-27.81v-86.6h27.81v86.6ZM292.94,163.57h-28.65v-22.31h28.65v22.31Z"/>
  <path class="cls-1" d="M353.22,174.74c6.78,0,12.8,1.58,18.06,4.75,5.28,3.16,9.42,7.51,12.42,13.06,3,5.56,4.5,11.89,4.5,19v51.96h-27.81v-46.15c0-5.43-1.31-9.76-3.92-12.98-2.61-3.22-6.31-4.83-11.08-4.83s-8.45,1.64-11.4,4.92c-2.95,3.28-4.42,7.58-4.42,12.9v46.15h-27.81v-86.6h25.81v8.31c6.89-6.98,15.44-10.48,25.65-10.48Z"/>
  <path class="cls-1" d="M437.31,174.74c8.22,0,15.85,1.89,22.9,5.67,7.05,3.77,12.72,9.06,17,15.9,4.28,6.83,6.42,14.58,6.42,23.23,0,2.56-.28,5.5-.83,8.83h-64.29c1.11,5.22,3.33,9.28,6.67,12.17,3.33,2.89,7.49,4.33,12.48,4.33,4,0,7.36-.72,10.08-2.17,2.72-1.44,5.03-3.61,6.92-6.5h26.48c-3.22,8.77-8.61,15.87-16.17,21.31-7.54,5.45-16.76,8.17-27.65,8.17-8.32,0-16.04-1.89-23.15-5.67-7.11-3.78-12.81-9.1-17.08-15.98-4.27-6.89-6.4-14.83-6.4-23.83s2.13-16.92,6.4-23.81c4.28-6.89,9.97-12.21,17.08-15.98,7.11-3.78,14.82-5.67,23.15-5.67ZM437.31,195.72c-4.66,0-8.62,1.31-11.9,3.92-3.28,2.61-5.53,6.42-6.75,11.42h37.65c-.89-4.55-2.95-8.25-6.17-11.08-3.22-2.83-7.5-4.25-12.83-4.25Z"/>
  <path class="cls-1" d="M522.93,265.67c-7.89,0-14.78-1.31-20.67-3.92-5.89-2.61-10.53-6.19-13.92-10.73-3.38-4.55-5.29-9.67-5.73-15.33h26.31c.33,2.67,1.69,4.89,4.08,6.67,2.39,1.78,5.64,2.67,9.75,2.67,3.54,0,6.28-.58,8.23-1.75,1.94-1.17,2.92-2.92,2.92-5.25s-1.31-4.08-3.92-5.25c-2.6-1.17-6.68-2.3-12.23-3.42-6.67-1.44-12.2-3.03-16.58-4.75-4.39-1.72-8.2-4.49-11.42-8.31-3.21-3.83-4.81-9.08-4.81-15.75,0-4.89,1.55-9.28,4.65-13.17,3.11-3.89,7.44-6.96,13-9.23,5.55-2.28,11.83-3.42,18.83-3.42,6.43,0,12.4,1.22,17.9,3.67,5.5,2.43,9.97,5.87,13.42,10.31,3.44,4.45,5.33,9.45,5.67,15h-26c-.22-2.55-1.36-4.61-3.42-6.17-2.04-1.55-4.73-2.33-8.06-2.33-3,0-5.31.5-6.92,1.5-1.61,1-2.42,2.45-2.42,4.33,0,2.22,1.25,3.86,3.75,4.92,2.5,1.06,6.57,2.25,12.23,3.58,6.67,1.45,12.19,3,16.58,4.67,4.39,1.66,8.19,4.34,11.4,8.06,3.22,3.72,4.83,8.81,4.83,15.25,0,8.77-3.39,15.65-10.17,20.65-6.77,5-15.86,7.5-27.29,7.5Z"/>
  <path class="cls-1" d="M606.2,265.67c-7.89,0-14.78-1.31-20.67-3.92-5.89-2.61-10.53-6.19-13.92-10.73-3.38-4.55-5.29-9.67-5.73-15.33h26.31c.33,2.67,1.69,4.89,4.08,6.67,2.39,1.78,5.64,2.67,9.75,2.67,3.54,0,6.28-.58,8.23-1.75,1.94-1.17,2.92-2.92,2.92-5.25s-1.31-4.08-3.92-5.25c-2.6-1.17-6.68-2.3-12.23-3.42-6.67-1.44-12.2-3.03-16.58-4.75-4.39-1.72-8.2-4.49-11.42-8.31-3.21-3.83-4.81-9.08-4.81-15.75,0-4.89,1.55-9.28,4.65-13.17,3.11-3.89,7.44-6.96,13-9.23,5.55-2.28,11.83-3.42,18.83-3.42,6.43,0,12.4,1.22,17.9,3.67,5.5,2.43,9.97,5.87,13.42,10.31,3.44,4.45,5.33,9.45,5.67,15h-26c-.22-2.55-1.36-4.61-3.42-6.17-2.04-1.55-4.73-2.33-8.06-2.33-3,0-5.31.5-6.92,1.5-1.61,1-2.42,2.45-2.42,4.33,0,2.22,1.25,3.86,3.75,4.92,2.5,1.06,6.57,2.25,12.23,3.58,6.67,1.45,12.19,3,16.58,4.67,4.39,1.66,8.19,4.34,11.4,8.06,3.22,3.72,4.83,8.81,4.83,15.25,0,8.77-3.39,15.65-10.17,20.65-6.77,5-15.86,7.5-27.29,7.5Z"/>
</svg>