<svg viewBox="0 0 222.5 25" xmlns="http://www.w3.org/2000/svg"><g fill="#161c2d"><path d="m98 14.7v9.7h5.5v-18.6z"/><path d="m222 19.2h-21.5c-.7 0-1 .3-1 1v3.9.3h22.5z"/><path d="m160.8.9h5.4v23.5h-5.4z"/><path d="m196 .9s-.1 0-.2 0h-5.9c-.2 0-.2 0-.3.2-3.2 5.8-6.5 11.6-9.7 17.4v.4c1 1.7 1.9 3.5 2.9 5.2 0 0 0 .2.1.2 4.3-7.8 8.7-15.6 13.1-23.5"/><path d="m136.4 6.1h7.3v18.3h5.4v-18.3h7.3v-5.2h-20z"/><path d="m136.3.9v5.2h7.3v18.3h5.5v-18.3h7.4v-5.2z"/><path d="m196 .9c-4.4 7.8-8.7 15.6-13.1 23.5 0 0-.1-.1-.1-.2-1-1.7-1.9-3.5-2.9-5.2 0-.1 0-.3 0-.4 3.2-5.8 6.5-11.6 9.7-17.4 0-.1.2-.2.3-.2h5.9.2"/><path d="m160.8.9h5.4v23.5h-5.4z"/><path d="m199.5 1.8v3.9.3h22.5v-5.2h-22.5z"/><path d="m16.2 6.6c-1.8-.8-3.7-1.3-5.7-1.3-.9 0-1.7.1-2.5.5-.5.3-.9.8-.9 1.4s.3 1.1.8 1.5c1 .6 2 1 3.1 1.2l1.5.4c1.8.4 3.4 1.3 4.7 2.5 1.1 1.1 1.7 2.6 1.6 4.2 0 2.1-1 4.2-2.7 5.4-2.2 1.4-4.8 2.1-7.4 2-2.8 0-5.6-.5-8.2-1.6l1.5-4.7c1 .5 2 .9 3.1 1.2s2.2.5 3.3.5c1 0 2-.1 2.9-.6.6-.3.9-.9.9-1.5s-.3-1.2-.9-1.5c-1.1-.5-2.2-.9-3.4-1.2l-1.5-.4c-1.7-.4-3.2-1.3-4.4-2.5-1-1.2-1.5-2.7-1.4-4.2 0-2 .9-3.9 2.4-5 2-1.7 4.4-2.4 6.9-2.2 2.6 0 5.3.4 7.7 1.5z"/><path d="m76.2.9v23.5h5.4v-17.1s0 0 0 0c2.7 4.4 5.4 8.8 8.1 13.2 4-6.6 8.1-13.1 12.1-19.7h-6c-.2 0-.4 0-.5.3-1.8 3-3.6 5.9-5.5 8.9 0 0 0 .2-.2.3 0-.1-.1-.2-.2-.3-1.8-3-3.6-5.9-5.4-8.9 0-.2-.3-.3-.4-.2h-7.5z"/><path d="m120.1 19.4c-3.9 0-7.2-3-7.3-6.9.2-4 3.6-7.1 7.6-6.9 3.7.2 6.7 3.2 6.9 6.9 0 3.9-3.4 7-7.3 6.9m.1-18.6c-6.8 0-12.3 5.2-12.3 11.7s5.5 11.7 12.3 11.7 12.3-5.2 12.3-11.7-5.5-11.7-12.3-11.7"/><path d="m35.5 19.4c-3.9 0-7.2-3-7.3-6.9 0-3.9 3.4-7 7.3-6.9 3.9-.1 7.2 3 7.3 6.9 0 3.9-3.4 7-7.3 6.9zm0-18.6c-6.8 0-12.3 5.2-12.3 11.7s5.5 11.7 12.3 11.7 12.3-5.2 12.3-11.7-5.5-11.7-12.3-11.7"/></g><path d="m199.5.9v6.5s0 .3.4.4l8.5 4.7-8.6 4.8s-.3.1-.2.6v6.4l21.2-11.8z" fill="#eb671b"/><path d="m180.7 8.9-3.1 5.7-7.7-13.7h6.1c.1 0 .3 0 .3.2z" fill="#161c2d"/><path d="m52.7 15.6h13.8l3.2-5.2h-13.8z" fill="#161c2d"/></svg>