<?xml version="1.0" encoding="UTF-8"?>
<svg id="Layer_1" xmlns="http://www.w3.org/2000/svg" version="1.1" viewBox="0 0 387.77 95.99">
  <!-- Generator: Adobe Illustrator 30.4.0, SVG Export Plug-In . SVG Version: 2.1.4 Build 226)  -->
  <defs>
    <style>
      .st0 {
        fill: #0a2c4a;
      }
    </style>
  </defs>
  <path class="st0" d="M213.32,66.82v.89c.6.11,2.79.75,2.79,2.31v25.02h19.52v-4.11h-12.12v-8.83h11.11v-4.01h-11.11v-7.15h12.12v-4.12h-22.31ZM166.68,87.64l-15.72-20.83h-10.78v.89c.61.11,2.8.75,2.8,2.31v25.02h5.57v-18.83l14.15,18.83h9.49v-28.22h-5.5v20.83h-.01ZM256.56,79.11c-2.7-1.67-4.15-2.57-4.33-2.71-2.18-1.5-3.27-2.62-3.27-3.36,0-.58.25-1.08.76-1.49.97-.82,2.45-1.22,4.42-1.22,1.31,0,2.43.17,3.38.5,1.76.64,2.85,1.55,3.23,2.73h.88v-6.07c-2.38-.8-5.02-1.2-7.92-1.2-3.95,0-7,.74-9.17,2.18-2.02,1.39-3.04,3.21-3.04,5.48,0,1.86.81,3.6,2.43,5.2.97.98,2.57,2.14,4.81,3.49,2.44,1.5,3.78,2.34,4.01,2.51,1.69,1.27,2.53,2.49,2.53,3.65,0,.98-.53,1.71-1.59,2.18-.79.35-1.72.53-2.83.53-3.52,0-6.75-.76-9.68-2.28v4.95c2.89.91,5.89,1.36,9.01,1.36,2.72,0,5.06-.34,7-1.05,3.93-1.39,5.88-3.79,5.88-7.21,0-2.76-2.17-5.48-6.49-8.18M381.29,79.11c-2.69-1.67-4.15-2.57-4.34-2.71-2.18-1.5-3.27-2.62-3.27-3.36,0-.58.25-1.08.76-1.49.97-.82,2.45-1.22,4.42-1.22,1.3,0,2.43.17,3.37.5,1.77.64,2.85,1.55,3.24,2.73h.88v-6.07c-2.39-.8-5.03-1.2-7.92-1.2-3.95,0-7.02.74-9.18,2.18-2.03,1.39-3.04,3.21-3.04,5.48,0,1.86.81,3.6,2.42,5.2.97.98,2.59,2.14,4.82,3.49,2.43,1.5,3.77,2.34,4.01,2.51,1.68,1.27,2.52,2.49,2.52,3.65,0,.98-.53,1.71-1.58,2.18-.79.35-1.73.53-2.84.53-3.52,0-6.75-.76-9.68-2.28v4.95c2.9.91,5.9,1.36,9,1.36,2.73,0,5.06-.34,7.01-1.05,3.92-1.39,5.88-3.79,5.88-7.21,0-2.76-2.17-5.48-6.5-8.18M354.26,85.39c-.46-.54-.78-.92-.96-1.12-.75-.89-1.39-1.52-1.91-1.9,5.52-.86,8.27-3.29,8.27-7.3,0-5.5-4-8.25-11.97-8.25h-15.72v.89c.61.11,2.8.75,2.8,2.31v25.02h7.4v-12.35c1.06.56,2.09,1.38,3.13,2.45.46.5,1.31,1.52,2.55,3.08l5.43,6.81h8.73l-6.63-8.23-1.12-1.41h0ZM344.68,80.43c-1.06,0-1.89-.03-2.51-.08v-9.93h2.7c1.61,0,2.96.12,4.04.37,2.27.53,3.4,1.95,3.4,4.28,0,3.58-2.55,5.36-7.62,5.36M266.57,70.93h10.11v24.11h7.36v-24.11h10.1v-4.11h-27.57v4.11h0ZM312.35,66.06c-10.18,0-16.42,6.7-16.42,14.96s6.24,14.97,16.42,14.97,16.41-6.7,16.41-14.97-6.24-14.96-16.41-14.96M312.35,91.57c-5.63,0-8.73-3.09-8.73-10.55s3.11-10.55,8.73-10.55,8.74,3.09,8.74,10.55-3.12,10.55-8.74,10.55M195.3,87.51l-8.16-20.69h-10.4v.89c1.2.23,2.55.75,3.16,2.31l9.87,25.02h7.94l11.71-28.22h-5.53l-8.58,20.69h-.01ZM124.6,67.7c.61.11,2.8.75,2.8,2.31v25.02h7.4v-28.22h-10.2v.89Z"/>
  <path class="st0" d="M246.1,1.59c1.08.2,4.99,1.35,4.99,4.13v44.66h13.21V0h-18.21v1.59s.01,0,.01,0ZM142.18,0v1.59c1.6.33,5.07,1.31,3.67,4.45l-19.71,44.34h10.41l6.17-13.82h21.83l5.39,13.82h13.69L164.07,0h-21.89ZM145.51,30.3l8.86-19.83,7.73,19.83h-16.59ZM366.69,0h-21.9v1.59c1.59.33,5.07,1.31,3.65,4.45l-19.7,44.34h10.41l6.17-13.82h21.83l5.39,13.82h13.71L366.68,0s.01,0,.01,0ZM348.13,30.3l8.85-19.83,7.74,19.83h-16.59ZM320.66,0l-15.33,36.94L290.75,0h-18.58v1.59c2.15.41,4.55,1.34,5.65,4.13l17.63,44.66h14.18L330.53,0h-9.88,0ZM213.72,36.94L199.14,0h-18.57v1.59c2.14.41,4.55,1.34,5.65,4.13l17.63,44.66h14.19L238.94,0h-9.89l-15.33,36.94h0Z"/>
  <path class="st0" d="M94.58,77.95L94.61,0h-26.18l7.6,78.52c6.05-.37,12.24-.57,18.55-.58"/>
  <path class="st0" d="M60.72,79.83L68.41,0H0l.04,94.79c16.07-7.08,37-12.34,60.68-14.96"/>
</svg>