<?xml version="1.0" encoding="UTF-8"?>
<svg id="Layer_1" xmlns="http://www.w3.org/2000/svg" version="1.1" viewBox="0 0 520.3 189.3">
  <!-- Generator: Adobe Illustrator 30.4.0, SVG Export Plug-In . SVG Version: 2.1.4 Build 226)  -->
  <defs>
    <style>
      .st0 {
        fill: #0a2c4a;
      }
    </style>
  </defs>
  <path class="st0" d="M.6,149.9h8.4c8.5,0,14.1,5.4,14.1,15.6,0,9.2-4.9,15.6-14.2,15.6H.7v-31.2h-.1ZM4.1,178.1h4.7c7.2,0,10.9-4.3,10.9-12.6,0-9.1-4.3-12.6-10.7-12.6h-4.8v25.2h-.1ZM44.1,176.2c-1.5,2.5-3.5,5.2-8.6,5.2s-9.8-3.5-9.8-11.7c0-7.3,3.6-11.7,9.2-11.7,4.7,0,8.5,3,8.5,10.2v2.1h-14.6c0,4.9,2.9,8.4,6.6,8.4,2.61,0,5-1.48,6.2-3.8l2.5,1.3ZM40.3,167.7c0-4.1-2-6.9-5.4-6.9-3.8,0-5.8,2.8-6,6.9h11.4ZM48,175.3c1.41,2.17,3.81,3.48,6.4,3.5,3.4,0,4.8-1.8,4.8-3.7,0-5.7-13.3-2.7-13-10.9.1-3.9,3.1-6.1,7.4-6,3.03.03,5.88,1.47,7.7,3.9l-2.2,1.9c-1.7-2.1-3.4-3.2-5.8-3.2-2.6,0-4.1,1.3-4.1,3.3,0,4.9,13,2.4,13,10.7,0,4.4-3.8,6.6-7.9,6.6-3.51.06-6.84-1.53-9-4.3l2.7-1.8ZM70.1,149.4v3.7h-3.1v-3.7h3.1ZM67,158.6h3.1v22.4h-3.1v-22.4ZM94.2,160.8c-1.2-.04-2.39.16-3.5.6,2.61,3.41,1.96,8.3-1.45,10.91-1.44,1.1-3.23,1.67-5.05,1.59h-.1c-1.36,0-2.7-.21-4-.6-1.04.16-1.8,1.05-1.8,2.1,0,1,.7,1.6,1.9,1.6,10.6,0,14,1.9,14,6.3,0,3.3-3.2,6-10.2,6-6.3,0-9.7-1.7-9.7-5.4,0-2.2,1.4-3.3,3.8-4.6-1.52-.36-2.65-1.64-2.8-3.2,0-1.9,1.3-2.8,3-3.8-2-1.47-3.16-3.82-3.1-6.3,0-4.7,3.7-7.9,8.5-7.9,1.99-.11,3.97.45,5.6,1.6,1.41-1.05,3.06-1.74,4.8-2v3.1h.1ZM83.6,180.1c-4.9,0-6.3,2.2-6.3,3.8s1,2.8,7.3,2.8c3.7,0,6.7-1,6.8-3.2-.1-2.3-2.3-3.4-7.8-3.4h0ZM83.7,160.8c-3.5,0-5.4,2.2-5.4,5.2s2.3,5.2,5.8,5.2,5.4-2.3,5.4-5c-.1-3.3-2-5.4-5.8-5.4h0ZM101,158.6v3h.1c1.8-2,4.1-3.5,6.6-3.5,3.3,0,6.5,1.7,6.5,6.6v16.3h-3.1v-16.2c0-3-1.4-4-3.7-4s-5,1.9-6.4,3.4v16.8h-3.1v-22.4h3.1ZM137,176.2c-1.5,2.5-3.5,5.2-8.6,5.2s-9.8-3.5-9.8-11.7c0-7.3,3.6-11.7,9.2-11.7,4.7,0,8.5,3,8.5,10.2v2.1h-14.6c0,4.9,2.9,8.4,6.6,8.4,2.61,0,5.01-1.48,6.2-3.8l2.5,1.3h0ZM133.2,167.7c0-4.1-2-6.9-5.4-6.9-3.8,0-5.8,2.8-6,6.9h11.4ZM157.6,149.9v26.2c-.08,1.64-.02,3.28.2,4.9h-2.8l-.4-2.2c-1.45,1.74-3.64,2.7-5.9,2.6-4,0-9.2-2.7-9.2-11.7s5.2-11.7,9-11.7c2.19.14,4.27,1.03,5.9,2.5l.2.1v-10.9h3v.2ZM154.5,163.9c-1.7-1.9-3.8-3.1-5.7-3.1-3.6,0-6.3,2.4-6.3,9.2,0,5.7,2.5,8.8,6.3,8.8,2,0,3.5-.9,5.7-3v-11.9ZM177.4,181v-19.8h-3.8v-2.7h3.8v-2.5c0-5.3,1.8-6.6,5.5-6.6l2.8.2v2.8l-2.2-.3c-2.1,0-2.9.7-2.9,3.2v3.3h4.9v2.7h-4.9v19.8h-3.2v-.1h0ZM196.5,181.5c-6.1,0-9.2-5.2-9.2-11.7s3.1-11.7,9.2-11.7,9.2,5.2,9.2,11.7-3.1,11.7-9.2,11.7h0ZM196.5,160.8c-3.7,0-6.1,3.2-6.1,9s2.4,9,6.1,9,6.1-3.2,6.1-9-2.4-9-6.1-9h0ZM209.2,158.6h3.1v4.4h.1c1.7-3.1,3.6-4.8,7.3-4.8v3.1c-3.9.1-5.9,2.6-7.4,7.3v12.4h-3.1v-22.4ZM239.2,149.9v31.2h-3.1v-31.2h3.1ZM250.1,149.4v3.7h-3.1v-3.7h3.1ZM247,158.6h3.1v22.4h-3.1v-22.4ZM258.4,181v-19.8h-3.8v-2.7h3.8v-2.5c0-5.3,1.8-6.6,5.5-6.6l2.8.2v2.8l-2.2-.3c-2.1,0-2.9.7-2.9,3.2v3.3h4.9v2.7h-4.9v19.8h-3.2v-.1h0ZM286.9,176.2c-1.5,2.5-3.5,5.2-8.6,5.2s-9.8-3.5-9.8-11.7c0-7.3,3.6-11.7,9.2-11.7,4.7,0,8.5,3,8.5,10.2v2.1h-14.6c0,4.9,2.9,8.4,6.6,8.4,2.61,0,5.01-1.48,6.2-3.8l2.5,1.3h0ZM283.1,167.7c0-4.1-2-6.9-5.4-6.9-3.8,0-5.8,2.8-6,6.9h11.4Z"/>
  <path class="st0" d="M6,36c0-8.2,0-17.6-4-23.7,16,0,32.3-1.8,48.2-1.8,14.1,0,27,6.2,27,21.9s-12.5,23.4-25.4,28.8v.4c16.9,3.8,31.4,10.5,31.4,30.1,0,28.6-21.8,37-46.4,37-12.3,0-24.5-.7-36.8-.7,6-12.9,6-31.5,6-45.5v-46.5ZM22.3,60.6h4.9c16,0,32.3-5.1,32.3-24.3,0-16.3-11.1-18.7-25.9-18.7-3.4,0-7.3.4-11.2.7v42.3h-.1ZM22.3,95.8c0,21,0,25.6,12.1,25.6,18.5,0,29.9-7.3,29.9-26.6,0-24.8-18.1-27.6-39-27.6h-3v28.6ZM106.4,75.7c-.45,3.38-.68,6.79-.7,10.2,0,16.9,7.6,33,26.5,33,8.9,0,17.6-3.6,21.9-8.5v2c0,9.6-15.2,18.5-28.7,18.5-23.7,0-35-21.4-35-43.3,0-23.6,13.1-43.3,37.9-43.3,17.4,0,27.7,11.4,27.7,23.2,0,8.3-6,8.3-17.2,8.3h-32.4v-.1h0ZM126.2,70.2c8.9,0,13.6,0,13.6-6.9s-4.9-13.8-13.8-13.8c-11.4,0-16.3,11.1-18.5,20.7h18.7ZM168.8,76c0-12.9,0-25.4-4.7-29.2,6.7-.2,13.1-.9,15.2-.9,3.3,0,1.3,9.1,3.3,9.1.9,0,6.9-10.9,17.6-10.9,6.3,0,10,2.5,10,6.9,0,3.4-1.8,6-6.3,6-3.4,0-7.1-.5-11.4-.5-9.1,0-10.2,6.3-10.2,14.3v37.3c0,6.7,0,14.5,3.3,19.8h-19.9c3.3-5.3,3.3-13.1,3.3-19.8v-32.1h-.2ZM297.5,75.7c-.45,3.38-.68,6.79-.7,10.2,0,16.9,7.6,33,26.5,33,8.9,0,17.6-3.6,21.9-8.5v2c0,9.6-15.2,18.5-28.6,18.5-23.8,0-35-21.4-35-43.3,0-23.6,13.1-43.3,37.9-43.3,17.4,0,27.7,11.4,27.7,23.2,0,8.3-6,8.3-17.2,8.3h-32.5v-.1h0ZM317.2,70.2c8.9,0,13.6,0,13.6-6.9s-4.9-13.8-13.8-13.8c-11.4,0-16.3,11.1-18.5,20.7h18.7ZM355.8,127.9c3.3-5.1,3.3-12.9,3.3-19.6V22c0-7.4,0-14.5-4.7-18.1l18.1-2.9v107.3c0,6.7,0,14.5,3.3,19.6h-20ZM398.9,85.8c0,16.9,7.6,33,26.5,33,8.9,0,17.6-3.6,21.9-8.5v2c0,9.6-15.2,18.5-28.6,18.5-23.7,0-35-21.4-35-43.3,0-23.6,13.1-43.3,37.9-43.3,17.4,0,27.7,11.4,27.7,23.2,0,8.3-6,8.3-17.2,8.3h-32.5M419.4,70.2c8.9,0,13.6,0,13.6-6.9s-4.9-13.8-13.8-13.8c-11.4,0-16.3,11.1-18.5,20.7h18.7Z"/>
  <path class="st0" d="M520.3,47c-2.91,5.12-5.38,10.47-7.4,16l-25.6,65.4c-4.9,12.3-20.3,51.2-49,51.2-15.8,0-31.3-9.5-29.8-20.5,43.9,27.3,79.9-5.2,64.5-50.9l-6.5-21.9c-2.7-9.2-9.4-31.7-15.6-39.3,3.6-.4,11.2-1.1,13.4-1.1,3.1,0,4,1.6,5.1,5.3l15.6,53.1c.9,2.9,1.3,5.4,2.5,5.4s1.8-2.9,2.7-5.4l9.2-28.8c1.6-4.9,5.3-16.7,5.3-21.9.08-2.33-.63-4.62-2-6.5h17.6v-.1h0ZM219.2,99.2l-.2-34.2.2-32.9c0-16.5-.7-26.2-5.6-29.4L232.1,0v79.6c16.9-11.8,25.1-22.7,25.1-28.3.05-1.82-.48-3.6-1.5-5.1h18.3l-23.4,25.1c-2.19,2.25-4.5,4.38-6.9,6.4,22.3,28.5,32.2,47.2,38.5,49.8h-18.9l-26.7-40.3c-1.5-2.4-2.9-3.6-4-3.6l-.5.2v20.7c0,12.9.4,20.5,3.8,23.1h-20.7c3.4-2.4,4-11.8,4-28.4h0Z"/>
</svg>