<?xml version="1.0" encoding="UTF-8"?>
<svg id="Layer_1" xmlns="http://www.w3.org/2000/svg" version="1.1" viewBox="0 0 2476.35 400.81">
  <!-- Generator: Adobe Illustrator 30.4.0, SVG Export Plug-In . SVG Version: 2.1.4 Build 226)  -->
  <defs>
    <style>
      .st0 {
        fill: #092c4a;
      }
    </style>
  </defs>
  <path class="st0" d="M1196.63,356.74l-12.28,12.29c-18.17,15.65-40.47,22.94-64.56,25.76l-160.27.14c-.52-2.8-.63-5.18.18-7.93,7.58-5.46,15.38-13.6,15.38-24.59l.02-300.21c0-13.28-10.23-23.44-20.91-28.19-1.69-.75-1.48-5.39-.19-6.27,7.58-5.21,15.69-8.54,24.3-11.84,19.67-7.53,39.9-11.76,60.91-14.24l18.04-1.03c40.13-2.3,84.44,6.71,109.26,40.13,17.12,23.06,22.4,50.31,19.23,78.86-2.45,22.1-12.95,41.9-28.11,57.51-1.77,1.82-2.76,2.73-2.53,5.33.14,1.58,1.3,3.22,3.57,4.21,35.02,15.25,58.02,48.23,61.21,86.55l-.02,25.47c-1.92,21.22-9.32,41.36-23.2,58.06ZM1135.76,113.22l-.02-13.62c-1.2-16.01-5.48-31.62-16.31-43.89-16.16-18.3-39.28-22.92-63.27-21.06l-13.26,1.03c-3.85.3-11.45,2.59-11.45,8.52l-.11,127.34c.47,2.95,5.61,4.4,7.75,4.37l29.8-.35c39.29-2.33,63.62-22.46,66.87-62.33ZM1152.46,322.62c4.97-11.32,7.19-22.6,7.15-34.48l-.02-6.47c-.08-25.83-10.96-51.18-33.65-64.63-11.07-6.56-23.78-10.58-37.05-10.69l-51.62-.43c-3.58-.03-7.03,3.42-7.03,7.13l.07,142.76c0,5.05,5.56,8.91,10.13,8.89l41.37-.2c30.09-.14,58.06-13.18,70.65-41.89Z"/>
  <path class="st0" d="M266.74,299.15c-3.58,40.9-29.38,75.18-67.91,88.36-10.41,3.56-20.62,6.98-32.07,7.01l-160.25.49c-.56-3-.6-5.21.12-7.97,8.04-5.74,15.48-14.3,15.47-25.62l-.18-299.78c0-12.93-10.2-22.81-20.07-26.96-2.47-1.04-1.94-4.28-1.44-5.93.4-1.33,2.29-2.46,4.3-3.54C31.3,11.03,60.61,4.27,90.56,1.22c4.91-.5,9.9.27,14.57-.56,6.77-1.21,12.46-.44,19.11-.12,20.33.98,40.17,4.72,58.14,14.12,29.49,15.43,46.96,43.5,50.4,76.58l.1,26.55c-2.09,23.79-13.6,44.92-30.31,61.49-2.14,2.12-.23,5.91,2.42,7.05,35.21,15.21,58.06,47.66,61.77,86.09v26.72ZM181.77,118.42l.09-23.23c-1.37-15.39-6.75-29.47-17.11-40.84-11.54-12.66-27.49-18.18-44.4-19.85-9.5-.94-19.09.1-29.45.99-6.08.52-13.41,3.91-13.42,11.86l-.25,121.42c0,3.95,3.56,6.98,7.24,6.95l31.36-.22c34.27-.24,62.01-21.46,65.96-57.07ZM206.61,293.89c1.96-22.19-3.3-47.35-18.24-64.16-13.23-14.89-31.73-22.04-51.64-23.36l-52.48-.47c-3.55-.03-6.94,3.46-6.94,7.35l-.03,141.45c0,5.68,4.86,10.02,10.19,9.99l41.36-.2c43.99-.21,73.85-26.18,77.77-70.61Z"/>
  <path class="st0" d="M736.45,227.61c-2.81-3.99-6.25-5.68-10.22-5.67l-16.05.04c-2.08,0-6.91,2.31-6.91,5.12l.26,138.39c.02,8.84,6.09,16.02,11.22,21.59.82,2.74.71,5.03.23,7.83h-82.51c-.53-2.79-.32-5.17-.11-7.87,9.15-5.51,13.92-13.68,15.89-24.64l-.3-302.98c-.01-13.43-10.4-23.37-20.7-28.11-1.71-1.07-1.47-4.87-.61-6.21,26-12.22,53.74-19.95,82.46-23.38l17.09-1.09c40.59-2.58,88.69,4.98,116.5,35.68,18.25,20.14,26.88,43.51,28.54,70.51,2.99,48.66-26.01,92.36-72.01,108.15-1.48.51-3,1.12-3.52,2-.64,1.09-1.13,3.23-.07,4.73l100.59,142.85c5.75,8.16,17.46,16.9,26.48,21.78.73,3,.84,5.47.28,8.59l-64.72-.09c-1.87,0-5.08-1.17-6.3-2.89l-115.53-164.34ZM811.43,113.93c0-11.81-1.32-22.66-5.51-33.72-9.37-24.76-29.52-39.77-56.05-42.82h-32.2c-4.12,0-13.99,2.09-14.02,7.96l-.49,140.38c-.01,3.53,2.92,6.18,6.1,6.15l32.52-.39c47.38-4.08,69.61-30.2,69.65-77.57Z"/>
  <path class="st0" d="M321.99,39.78c-.02-11.33-7.45-20-15.16-25.17-1.11-2.61-.83-4.93-.33-7.71h82.51c.42,2.55.46,4.49.03,7.3-5.51,5.19-11.67,12.93-11.66,22.18l.21,257.03c.01,13.91,4.13,27.48,9.78,39.26,6.9,14.39,19.63,24.28,34.73,28.33,20.18,5.4,40.72,5.25,60.73-.49,14.93-4.28,27.32-13.78,34.3-27.74,6.52-13.04,9.76-27.32,9.77-42.53l.18-249.85c0-8.29-3.43-17.23-8.63-22.51-3.22-3.26-6.62-7.94-3-11.81l64.55-.12c1.71,1.89,2.25,6.34.23,8.04-6.75,5.67-14.79,12.97-14.8,23.16l-.36,259.06c-1.68,14.1-2.8,26.81-7.87,39.68-14.89,40.72-49.88,60.37-92.31,63.55l-35.19-.07c-29.62-2.46-61.36-13.72-81.01-35.82-16.45-18.5-23.37-38.31-26.36-63.14l-.36-260.64Z"/>
  <g>
    <g>
      <path class="st0" d="M1667.42,227.64c-2.83-4.02-6.13-5.71-10.21-5.71l-16,.04c-2.09,0-6.96,2.32-6.95,5.13l.39,139.11c.02,8.67,5.95,15.81,11.12,20.74.81,2.91.7,5.14.23,7.96h-82.49c-.62-3.04-.44-5.68.21-8.48,9.42-5.01,13.3-13.52,15.53-24.25l-.29-302.75c-.01-13.31-10.42-23.91-21.02-27.9-1.28-1.61-1.15-4.76-.31-6.38,26.05-12.45,53.71-19.93,82.5-23.42l17.06-1.09,23.39-.26c27.22.99,54.13,6.82,76.89,22.1l12.09,10.11c10.05,8.4,16.64,18.88,22.11,31.03,27.14,60.31,1.14,129.68-61.34,151.35-1.6.56-3.07,1.11-3.62,2.02-.62,1.04-1.14,3.28-.1,4.75l94.81,134.81c8.75,12.44,19.22,22.59,32.21,29.92.91,2.77.91,5.43.36,8.44l-61.73.06c-4.11,0-7.63-.67-10.09-4.16l-114.74-163.15ZM1728.14,165.27c8.42-11.52,12.49-24.7,13.69-38.64,1.92-22.35-.83-46.8-15-64.31l-10.99-10.99c-14.25-11.56-32.46-15.37-50.53-14.49l-20.3,1c-3.66.18-10.57,2.88-10.58,8.37l-.22,139.54c0,3.54,2.81,6.18,6.06,6.14l32.54-.37c15.99-1.28,31.2-5.31,44.1-14.93l5.88-5.11,5.35-6.2Z"/>
      <path class="st0" d="M1421.15,207.35l-66.94-.52c-2.36-.02-7.39,1.59-7.85,4.44l-.09,145.51c0,4.55,4.7,8.11,9.14,8.1l121.62-.24c10.5-.02,19.47-7.15,24.85-14.97,2.7-1.28,5.32-1.02,8.37-.53l-.03,45.76h-234.66c-.6-2.78-.7-5.14.16-7.92,7.82-5.52,15.34-14.31,15.34-25.61l.02-320.96c0-11.45-7.3-21.17-15.6-26.14-.51-3.24-.48-5.52.06-8.39l218.54.03.19,45.74c-3.12.42-5.86.72-8.6-.29-5.42-6.43-12.13-14.17-21.57-14.2l-110.74-.29c-3.74,0-7.1,3.44-7.09,7.15l.05,128.71c0,2.42,3.98,4.16,5.98,4.16l68.01-.13c7.49-.01,15.57-2.82,21.07-7.83,3.37-3.06,7.55-6.22,11.89-3.19v53.85c-2.57.58-4.51.43-7.11.23-5.8-7.48-14.56-12.41-24.99-12.49Z"/>
    </g>
    <g>
      <path class="st0" d="M1994.86,226.08c-2.74-3.9-7.95-4.18-11.46-4.14l-14.05.16c-3.5.04-7.11,2.87-7.1,7.17l.34,132.95c.03,10.05,5.2,18.36,11.77,24.42,1.74,2.01.99,5.67.61,8.24l-82.46.03c-.63-3.05-.45-5.64.25-8.54,7.88-4.58,12.05-11.72,14.51-20.93l-.18-307.4c0-12.45-10.31-22.13-20.24-26.33-1.15-2.37-.81-4.32-.34-6.76,27.4-13.16,56.73-20.49,87.05-23.7l12.66-.49,26.94-.11c17.72-.07,34.65,3.87,50.99,10.24,32.66,12.73,55.67,39.72,63.37,73.79l3.21,20.08c1.01,6.3.31,11.58-.22,18.26-3.34,41.67-31.11,77.68-70.61,91.52-2.44.85-6.36,2.82-5.42,6.25l102.44,145.1c6.5,9.21,16.08,14.66,24.85,20.53.93,2.49.67,5.4.25,8.53l-65.61-.26c-3.76-.02-5.98-4.3-8-7.16l-113.53-161.46ZM2070.84,122.47c1.19-14.19-.63-28.36-5.33-41.82-10.78-30.87-39.84-45.4-72.27-43.83l-19.1.93c-5.79.28-11.82,4.3-11.83,11.37l-.07,135.63c0,4.38,4.04,7.24,7.92,7.18l30.6-.44c9.58-.14,18.56-2.14,27.51-5.53,28.79-10.91,40.06-33.62,42.57-63.49Z"/>
      <path class="st0" d="M2447.01,38.4l-99.5,177.64c-2.13,3.8-5.26,7.5-5.25,12.01l.34,137.44c.02,9.11,7.78,16.37,13.73,20.86,1.46,2.97,1.13,5.5.62,8.56h-85.49c-.47-2.8-.58-5.13.18-7.85,7.59-5.52,15.31-13.74,15.32-24.38l.22-133.62c0-3.46-1.89-6.95-3.51-9.85l-92.91-166.64c-10.14-18.18-16.61-29.74-37.24-38.91-.53-2.65-.56-4.97-.03-7.77l96.49.02c.37,2.38.82,5.73-.16,7.71-9.3,5.69-8.13,16.7-2.3,27.15l75.33,135.32c.79,1.42,3.52.98,4.54.65,1.43-.46,2.19-1.57,3.32-3.6l73.19-131.4c5.85-10.5,7.81-23.41-2.15-27.47-.79-2.71-.83-5.34-.26-8.38h74.51c.45,2.73.52,5.27-.17,8-10.7,5.74-22.11,12.51-28.82,24.5Z"/>
    </g>
  </g>
</svg>