<?xml version="1.0" encoding="UTF-8"?>
<svg id="Layer_1" xmlns="http://www.w3.org/2000/svg" version="1.1" viewBox="0 0 1191.08 393.84">
  <!-- Generator: Adobe Illustrator 30.4.0, SVG Export Plug-In . SVG Version: 2.1.4 Build 226)  -->
  <defs>
    <style>
      .st0 {
        fill: #0a2c4a;
      }
    </style>
  </defs>
  <path class="st0" d="M510.89,208.1c0,54.34-44.05,98.4-98.4,98.4s-98.4-44.05-98.4-98.4,44.05-98.4,98.4-98.4,98.4,44.05,98.4,98.4ZM459.71,239.12c10.89-19.78,10.51-43.25-.21-62.53-9.69-17.4-27.73-27.64-47-27.64-19.28,0-37.28,10.25-47.02,27.64-10.89,19.45-10.93,43.38-.06,62.83,9.74,17.44,27.72,27.91,47.07,27.9,19.32-.01,37.35-10.31,47.21-28.22Z"/>
  <g>
    <g>
      <path class="st0" d="M745.54,336.21l37.54-15.93c11.17,25.22,31.94,37.69,58.94,34.2,20.4-2.64,35.51-16.38,40.16-36.53,2.55-11.08,2.9-22.16,1.92-34.82-25.77,28.63-67.6,28.71-98.98,9.53-33.43-20.44-51.46-57.69-46.53-97.07,4.5-35.95,29.43-68.46,65.22-80.66,27.88-9.5,59.62-4.86,80.18,17.92l.5-16.58h40.96s-.3,182.94-.3,182.94c-.02,14.98-3.15,28.84-8.59,42.43-8.59,21.44-25.19,38-47.06,45.77-49.44,17.57-101.53-1.15-123.96-51.18ZM818.94,264.65c22.95,7.7,46.81-1.26,59.19-21.73,12.93-21.38,12.6-49.07-.6-70.25-12.62-20.23-36.45-28.61-58.75-20.94-12.92,4.44-23.2,13.23-29.84,25.3-17.68,32.13-5.41,75.74,29.99,87.62Z"/>
      <g>
        <path class="st0" d="M1155.84,240.06l33.52,22.4c-19.69,29.34-52.8,45.93-88.37,43.23-41.25-2.31-75.79-30.13-86.61-69.99-6.11-22.5-4.72-45.96,3.68-67.54,18.45-47.41,72.01-70.65,118.97-50.95,27.09,11.37,45.13,38.67,54.05,66.55l-130.54,54.03c7.26,15.08,20.05,26,36.21,28.58,23.67,4.54,46.14-5.33,59.09-26.3ZM1140.59,168.85c-3.04-7.77-8.53-12.18-14.84-15.69-12.01-6.02-25.48-6.6-38.06-1.62-21.36,8.58-35.48,29.08-34.16,53.38l87.07-36.07Z"/>
        <rect class="st0" x="950.5" y="13.21" width="42.16" height="286.79"/>
      </g>
    </g>
    <g>
      <path class="st0" d="M155.6,182.69l.04-41.47,140.12-.02c6.49,45.38-3.68,94.25-37.75,125.76-22.05,22.14-50.11,34.13-80.98,37.89-55,6.7-108.5-14.7-142.93-58.06C14.79,222.48,3.96,193.45,1.53,162.51c-.44-5.65-.39-10.35,0-16.02,2.32-34.2,15.29-66.15,38.05-91.8C81.73,7.19,148.26-10.47,208.23,11c19.56,7.19,36.46,18.51,51.77,32.96l-29.53,29.33c-19.88-18.9-44.52-28.99-71.46-29.6-43.47-1.3-82.86,22.75-101.43,61.99-14.38,30.4-14.44,65.49-.34,95.92,19.85,42.84,63.85,66.96,110.67,62.35,28.07-2.76,54-15.02,71.15-37.94,9.48-12.67,13.58-28.07,15.7-43.29l-99.15-.03Z"/>
      <path class="st0" d="M722.65,208.1c0,54.34-44.05,98.39-98.39,98.39s-98.39-44.05-98.39-98.39,44.05-98.39,98.39-98.39,98.39,44.05,98.39,98.39ZM672.26,237.71c9.7-18.89,9.5-40.57.14-59.06-9.35-18.46-27.84-29.63-47.91-29.71-20.09-.08-38.72,10.99-48.2,29.42-10.02,19.47-9.65,42.96,1.39,61.9,10.22,17.54,28.79,27.82,48.7,27.04,18.97-.74,36.62-11.55,45.89-29.59Z"/>
    </g>
  </g>
</svg>