<?xml version="1.0" encoding="UTF-8"?>
<svg id="Layer_1" xmlns="http://www.w3.org/2000/svg" version="1.1" viewBox="0 0 199 65">
  <!-- Generator: Adobe Illustrator 30.4.0, SVG Export Plug-In . SVG Version: 2.1.4 Build 226)  -->
  <defs>
    <style>
      .st0 {
        fill: #0a2c4a;
      }
    </style>
  </defs>
  <path class="st0" d="M20.33,0h-11.85v1.02h3.77v19.83c0,5.97-1.66,7.65-5.3,7.65-2.28,0-2.68-1.74-2.68-2.66,0-2.17-.13-3.51-2.09-3.51s-2.18,2-2.18,2.63c0,2.72,2.09,4.83,7.45,4.83,6.39,0,8.94-2.17,8.94-9.45V1.02h3.91V0h.03Z"/>
  <path class="st0" d="M21.12,25.18c-.66,0-1.19.2-1.66.66-.46.46-.7,1.02-.7,1.67s.23,1.21.7,1.64c.46.46.99.66,1.66.66s1.19-.2,1.66-.66c.46-.43.66-.98.66-1.64s-.23-1.21-.66-1.67c-.46-.43-.99-.66-1.66-.66Z"/>
  <path class="st0" d="M46.45,25.18c-.66,0-1.19.2-1.66.66-.46.46-.66,1.02-.66,1.67s.23,1.21.66,1.64c.46.46,1.03.66,1.66.66.66,0,1.22-.2,1.69-.66.46-.43.7-.98.7-1.64s-.23-1.21-.7-1.67c-.46-.43-1.03-.66-1.69-.66Z"/>
  <path class="st0" d="M37.51,15.76h-2.35V1.18l2.15-.03c6.92,0,8.41,2.89,8.41,7.52s-2.71,7.09-8.21,7.09ZM39.1,0h-11.59v1.02h3.41v22.65c0,1.77-.1,1.87-.3,2.36-.2.59-.7,1.02-1.39,1.31-.53.23-1.32.36-2.38.36v1.31h12.45v-1.31c-1.06-.03-1.85-.13-2.38-.33-.73-.3-1.22-.72-1.46-1.35-.2-.49-.3-.95-.3-1.84v-7.35h3.08c8.97,0,11.45-3.58,11.45-8.47C49.73,3.48,48.17,0,39.1,0Z"/>
  <path class="st0" d="M85.35,25.97c-.17-.53-.23-1.15-.23-1.97V1.02h3.01V0h-7.32c-.1.26-8.81,22.19-8.81,22.19-.03.1-.1.13-.2.13s-.17-.03-.2-.13C71.61,22.19,62.34.26,62.24,0h-8.14v1.02h3.38v22.09l-.07,2.04c-.07.56-.23,1.02-.5,1.41-.26.43-.73.72-1.29.95-.4.13-.96.23-1.69.23v1.31h8.28v-1.31c-.7-.03-.99-.1-1.39-.23-.6-.2-1.03-.49-1.32-.92-.26-.39-.43-.85-.5-1.44l-.1-2.04V4.07h.5s10.46,24.72,10.56,24.98h.89l9.9-24.72h.26v19.66c0,.85-.1,1.51-.26,2.04-.2.59-.63,1.05-1.22,1.35-.43.2-1.16.33-2.05.36v1.31h11.29v-1.31c-.89-.03-1.59-.16-2.09-.39-.7-.3-1.13-.76-1.32-1.38Z"/>
  <path class="st0" d="M100.48,28.63c-4.54,0-5.23-2.3-5.23-9.62,0-5.68.36-9.95,5.23-9.95,5.26,0,5.3,4.4,5.3,9.59,0,7.42-1.26,9.98-5.3,9.98ZM100.54,7.78c-6.03,0-9.8,4.04-9.8,11.1,0,10.34,7.95,11.03,9.67,11.03,3.41,0,9.86-2.13,9.86-11.23,0-7.06-4.14-10.9-9.73-10.9Z"/>
  <path class="st0" d="M126.03,8.11c-3.61,0-4.87,2.17-5.83,4.33,0,0-.26-.03-.3,0-.03,0-.73-4.17-.73-4.17h-6.85v1.12h3.74v14.28c0,1.41-.07,2.53-.43,3.12-.43.69-1.29.95-2.71.95h-.6v1.31h11.69v-1.31h-.63c-1.52,0-2.32-.33-2.72-1.02-.36-.59-.53-1.58-.53-3.05v-7.42c0-2.49,1.99-5.35,4.24-5.35s2.42,3.41,4.93,2.17c1.79-.85,1.39-4.96-3.28-4.96Z"/>
  <path class="st0" d="M166.49,24.75c0,.07,0,.13-.07.16l-.1.1c-1.99,1.84-3.54,2.49-4.64,2.49-2.88,0-3.31-2.43-3.31-3.61,0-3.87,5.23-5.81,8.11-5.81v6.66ZM172.61,26.95c-1.26,0-1.65-.69-1.75-1.87l-.07-2.66v-8.7c0-1.87-.3-3.15-1.39-4.23-1.09-1.12-3.15-1.67-6.19-1.67-2.88,0-5.03.56-6.42,1.61-1.32,1.02-1.85,1.97-1.85,3.35,0,.62.16,1.08.53,1.38.37.33.76.46,1.26.46,1.16,0,1.82-.59,2.05-2.13.16-1.15.43-1.81.99-2.4.6-.62,1.52-.95,2.78-.95,1.46,0,2.52.39,3.08,1.21.53.76.83,1.77.83,3.02v3.48c-3.74.36-12.58,1.05-12.22,7.88.13,2.66,2.48,4.99,5.5,4.99,3.31,0,5.43-1.9,6.85-3.45.23,1.44,1.56,3.18,3.97,3.18,2.71,0,4.34-1.35,4.54-4.73h-.7c-.13,1.44-1.03,2.23-1.79,2.23Z"/>
  <path class="st0" d="M196.52,26.82c.5.66,1.23.85,2.48.95v1.31h-9.73v-1.31c.73-.07,1.26-.2,1.62-.46.5-.33.63-.85.76-1.48.1-.53.1-1.35.1-2.49v-6.8c0-1.64-.1-3.74-.66-4.86-.5-.98-1.32-1.48-2.85-1.48-1.72,0-3.24.82-4.07,2.33-.76,1.38-.76,3.58-.76,5.88v5.48c0,1.41.17,2.36.56,2.92.36.53,1.06.82,2.05.89v1.31h-10.1v-1.31c.76-.03,1.39-.13,1.75-.3.6-.26.99-.69,1.19-1.35.17-.53.23-1.35.23-2.43v-14.31h-3.18v-1.08h6.39l.73,3.78h.33c.83-1.61,2.58-4.01,6.72-4.01,1.12,0,2.18.23,3.08.69.89.46,1.62,1.18,2.12,2.1.5.95.69,2.13.69,3.48v9.42c-.07,1.08.03,2.46.53,3.12Z"/>
  <path class="st0" d="M140.77,22.09c-2.65,0-4.17-.98-4.17-6.47,0-3.87,1.32-6.73,4.17-6.73,3.31,0,4.3,2.63,4.3,6.66,0,5.78-1.79,6.53-4.3,6.53ZM150.83,6.96c-.6.2-.99.76-1.22,1.64-.17.85-.46,1.35-.89,1.48-.43.13-1.12.13-1.46-.1-1.06-.98-3.08-2.2-6.59-2.2-5.69,0-8.21,4.1-8.21,7.85,0,4.4,1.66,6.5,5.33,7.29.23.03.23.3.03.33-3.11.62-5.89,1.58-5.89,4.56,0,1.81,1.03,2.82,2.35,3.35,1.46.59,3.51.92,6.06.95,2.22.03,3.81.1,4.87.23,1.13.13,1.99.46,2.65.92.66.53,1.03,1.31,1.03,2.33,0,1.38-.73,2.49-2.19,3.35-1.36.76-3.24,1.18-5.53,1.18-1.99,0-3.61-.2-5.1-1.15-1.09-.69-1.29-2-1.06-2.99.2-.98-.13-2-1.26-2.2-.63-.1-1.39.23-1.75.79-.33.53-.46,1.15-.46,1.9,0,2.46,1.89,3.61,3.34,4.07,2.22.69,3.68.85,5.69.85,2.68,0,4.87-.43,6.42-1.21,1.56-.79,2.65-1.77,3.21-2.89.6-1.12.89-2.27.89-3.38,0-1.51-.33-2.72-.96-3.61-2.05-2.82-4.93-2.46-11.42-2.79-3.11,0-3.74-.56-3.74-1.54,0-1.44,1.16-2,5.69-2.69,4.44-.69,8.61-2.36,8.61-7.85,0-1.58-.36-2.95-.79-3.91.93.2,1.79.2,2.55-.07.89-.3,1.49-.76,1.82-1.38.33-.66.46-1.38.33-1.97-.33-1.25-1.26-1.51-2.35-1.15Z"/>
  <path class="st0" d="M3.44,61.82l-.89,2.86H.6l4.73-14.48h2.18l4.63,14.48h-2.32l-.86-2.86H3.44ZM8.51,60.27l-1.66-5.48-.53-2.86-.66,2.86-1.72,5.48h4.57Z"/>
  <path class="st0" d="M18.84,65c-2.15,0-3.38-.49-4.34-1.02l.4-1.58c1.22.53,2.25.92,3.64.92,1.92,0,2.81-.53,2.81-2.36,0-1.44-.53-1.97-2.75-2.53-2.62-.72-4.01-1.51-4.01-4.37,0-2.66,1.62-4.1,4.5-4.1,1.79,0,2.85.3,3.77.72l-.3,1.67c-1.16-.39-1.89-.59-3.41-.59-1.75,0-2.48.53-2.48,2.1,0,1.48.4,1.87,2.68,2.46,2.55.69,4.14,1.58,4.14,4.37.03,2.79-1.62,4.3-4.67,4.3Z"/>
  <path class="st0" d="M30.19,65c-2.15,0-3.38-.49-4.34-1.02l.4-1.58c1.22.53,2.25.92,3.64.92,1.92,0,2.81-.53,2.81-2.36,0-1.44-.53-1.97-2.75-2.53-2.62-.72-4.01-1.51-4.01-4.37,0-2.66,1.62-4.1,4.5-4.1,1.79,0,2.85.3,3.77.72l-.3,1.67c-1.16-.39-1.89-.59-3.41-.59-1.75,0-2.48.53-2.48,2.1,0,1.48.4,1.87,2.68,2.46,2.55.69,4.14,1.58,4.14,4.37s-1.62,4.3-4.67,4.3Z"/>
  <path class="st0" d="M37.91,64.67v-14.48h8.14v1.81h-5.86v4.43h5.03v1.67h-5.03v4.83h6.29v1.77h-8.57v-.03Z"/>
  <path class="st0" d="M52.34,52h-3.77v-1.81h9.77v1.81h-3.77v12.67h-2.22v-12.67Z"/>
  <path class="st0" d="M67.04,64.67v-14.48h2.95l2.68,9.62.63,4.01.63-4.01,2.81-9.62h3.08v14.48h-2.18v-7.22l.4-6.4-1.03,4.66-2.62,8.96h-2.35l-2.52-8.83-.96-4.79.4,6.43v7.19h-1.92Z"/>
  <path class="st0" d="M85.48,61.82l-.89,2.86h-1.95l4.73-14.48h2.18l4.63,14.48h-2.32l-.86-2.86h-5.53ZM90.54,60.27l-1.66-5.48-.53-2.86-.66,2.86-1.72,5.48h4.57Z"/>
  <path class="st0" d="M97,64.67v-14.48h2.48l4.5,8.67,1.56,4.2-.53-4.89v-7.98h1.99v14.48h-2.38l-4.73-8.99-1.39-3.97.5,4.63v8.34h-1.99Z"/>
  <path class="st0" d="M112.59,61.82l-.89,2.86h-1.95l4.73-14.48h2.18l4.64,14.48h-2.32l-.86-2.86h-5.53ZM117.66,60.27l-1.65-5.48-.53-2.86-.66,2.86-1.72,5.48h4.57Z"/>
  <path class="st0" d="M131.89,63.56l-1.29,1.28c-.53.1-1.22.16-1.82.16-4.27,0-5.79-3.22-5.79-7.58s1.75-7.48,6.03-7.48c1.59,0,2.81.3,3.87.72l-.26,1.77c-1.36-.39-2.38-.66-3.71-.66-2.05,0-3.54,1.08-3.54,5.19v.72c0,4.23,1.29,5.61,3.44,5.61,1.06,0,1.85-.2,2.45-.46v-4.14h-2.25v-1.58h4.34v7.75h-.73l-.73-1.31Z"/>
  <path class="st0" d="M136.83,64.67v-14.48h8.11v1.81h-5.86v4.43h5.03v1.67h-5.03v4.83h6.29v1.77h-8.54v-.03Z"/>
  <path class="st0" d="M148.28,64.67v-14.48h2.95l2.68,9.62.63,4.01.63-4.01,2.81-9.62h3.08v14.48h-2.18v-7.22l.4-6.4-1.03,4.66-2.62,8.96h-2.35l-2.52-8.83-.96-4.79.4,6.43v7.19h-1.92Z"/>
  <path class="st0" d="M165,64.67v-14.48h8.11v1.81h-5.86v4.43h5.03v1.67h-5.03v4.83h6.29v1.77h-8.54v-.03Z"/>
  <path class="st0" d="M176.49,64.67v-14.48h2.48l4.5,8.67,1.56,4.2-.53-4.89v-7.98h1.99v14.48h-2.38l-4.74-8.99-1.39-3.97.5,4.63v8.34h-1.99Z"/>
  <path class="st0" d="M192.97,52h-3.77v-1.81h9.8v1.81h-3.77v12.67h-2.25v-12.67Z"/>
</svg>