<?xml version="1.0" encoding="UTF-8"?>
<svg id="Layer_1" data-name="Layer 1" xmlns="http://www.w3.org/2000/svg" viewBox="0 0 517 86">
  <defs>
    <style>
      .cls-1 {
        fill: #0a2c4a;
      }
    </style>
  </defs>
  <path class="cls-1" d="M255,1.3c-2.9,1.5-4.5,5.4-3.6,9,.4,1.9,2.3,3.5,6.9,5.9,5,2.6,6.3,3.8,6.5,6,.6,5.5-6.7,6.1-12,1l-2.8-2.6v2.7c0,6.2,12.1,8.6,16.7,3.3,2.6-3,3-7.3.9-10.1-.7-1-3.8-3-6.7-4.4-3.1-1.5-5.5-3.4-5.7-4.4-.9-4.6,5.5-6.3,10.1-2.7,2.2,1.7,2.6,1.8,3.1.4q.9-2.2-2.4-3.9c-3.5-1.8-7.6-1.9-11-.2Z"/>
  <path class="cls-1" d="M209,5.2v4.1l2.3-2.1c1.8-1.7,3.6-2.2,7.4-2.2h5l.5,18.7c.3,11,.1,19.6-.4,20.6q-1.2,2.4,4.5,1.9c4.1-.3,4.6-.6,3.6-1.9-.9-1-1.4-7.6-1.7-20.4l-.5-18.9h5.4c3.3,0,6.3.6,7.7,1.6,2.1,1.5,2.2,1.4,2.2-2V1h-36v4.2Z"/>
  <path class="cls-1" d="M278.9,2.7c1.1,2.1.3,39-1,41.4-.7,1.4.3,1.7,8,2.2,14.7.9,20.9-1.6,23.2-9.4,1.5-4.9-1.1-10.7-5.9-13.1-3-1.5-3.1-1.7-1.3-2.3,5.7-1.8,8-10.8,4.1-15.8-2.8-3.5-7.6-4.7-18.8-4.7-8.5,0-9.2.1-8.3,1.7ZM293.6,5c5.5,0,8.4,2.5,8.4,7.4,0,5.7-2.7,7.9-10.4,8.4l-6.6.4v-3.9c0-7.9,1.2-13.4,2.7-12.9.8.4,3.5.6,5.9.6ZM299,25.5c5.3,2.7,6,11.8,1.2,15.5-1.9,1.5-4,2-8.8,2h-6.4v-19h5.5c3.1,0,6.9.7,8.5,1.5Z"/>
  <path class="cls-1" d="M193.8,3.7c1.5,3,2.2,17.4.9,17.8-.7.2-6,.5-11.8.8l-10.6.4-.7-7.9c-.4-4.9-.3-8.6.4-9.8,1-1.9.7-2-3.6-2-4,0-4.5.2-3.9,1.7.9,2.5,2.8,37.1,2.1,41-.4,3.1-.3,3.3,2.4,3.3,4.1,0,6.2-1,5.2-2.4-.5-.6-1.2-5.4-1.6-10.8l-.7-9.6,11.8-.4c6.5-.2,11.9-.3,12-.3.1.1.4,4.9.5,10.8l.3,10.7h3.9c3.2,0,3.7-.3,3.1-1.7-.9-2.5-2.8-37.3-2.1-40.6.5-2.6.4-2.7-4-2.7-3.9,0-4.4.2-3.6,1.7Z"/>
  <path class="cls-1" d="M321.2,18.2c-.2,9-.7,19-1.1,22.3-.5,3.3-.7,6.2-.6,6.3.2.2,2.2.6,4.5.9,4.1.6,4.2.5,3-1.7-.8-1.6-1-4.9-.5-11.2q.7-8.9,3.4-8.6c2,.2,4.3,2.7,10.6,11.5,7.8,11.1,8,11.3,11.9,11.3h3.9l-2.1-2.3c-3.9-4.2-14.1-19-13.6-19.9.3-.4,1.4-.8,2.4-.8,1.1,0,3.4-1.3,5.2-2.9,2.9-2.6,3.3-3.6,3.3-7.9,0-9-4.2-11.5-21-12.7l-9-.7-.3,16.4ZM340.9,7.1c3.7,1.3,5.1,3.5,5.1,8.3,0,5.8-2.6,7.6-11,7.6h-7v-6.3c0-9.8.5-10.7,5.5-10.7,2.3,0,5.6.5,7.4,1.1Z"/>
  <path class="cls-1" d="M134.3,5.1c-4.9.9-11.1,4-13.5,6.6-3.1,3.4-5.8,10.7-5.8,15.9-.1,17.2,13.8,27.9,30.1,23,3-.8,6.8-2.6,8.4-4,2.9-2.4,3-2.6,3-11.5v-9.1l-7.5.5c-11.3.9-13.8,1.4-14.4,3.1-.3.9-.6,1.7-.6,1.9s3.5.1,7.9-.2l7.8-.6.7,5.7c.9,6.5,0,8.1-5.1,10.3-4.2,1.7-9.5,1.7-13.7-.1-9.4-3.9-13.6-20.5-7.6-30.4,5.4-8.8,18.7-10.5,27-3.5l3.1,2.6-.3-3.4c-.2-2.8-1-3.7-3.8-5-4.5-2.2-10.5-2.9-15.7-1.8Z"/>
  <path class="cls-1" d="M367.8,8.7c.6,5-1.8,37.4-3,39.5-.8,1.6-.3,1.8,3.7,1.8,3.7,0,4.4-.3,3.8-1.5-1-1.8,1.4-38.4,2.7-40.7,1.5-2.7,1.3-2.8-3.3-2.8h-4.3l.4,3.7Z"/>
  <path class="cls-1" d="M389.6,8.9c.5,2.7-3,36.9-4.1,40.7-.6,2-.2,2.1,7.1,2.7,16.3,1.4,21,.4,26.9-5.7,8.2-8.5,8.8-23.3,1.2-31.4-4.5-4.9-10.1-6.6-27.4-8.5-4.1-.5-4.2-.4-3.7,2.2ZM407.2,12c11.7,3.3,16.3,17.7,9.4,29.5-3.4,5.7-7.4,7.5-17.1,7.5h-7.7l.6-3.8c.3-2,1-8.9,1.6-15.2,1.8-19.7,1.6-19,5.8-19,2.1,0,5.4.5,7.4,1Z"/>
  <path class="cls-1" d="M95,9.8c0,.4.4,1.2.9,1.7,1.2,1.2,5.3,38.9,4.5,41-.5,1.2.3,1.5,3.6,1.5,3.6,0,4.1-.2,3.5-1.8-1.1-2.6-4.6-35.2-4.3-39.5l.4-3.7h-4.3c-2.4,0-4.3.4-4.3.8Z"/>
  <path class="cls-1" d="M78.2,11.7c-1.1.4-1,.8.1,2.2,1.2,1.3,4.7,23.3,4.7,29.6,0,1.1-5.8-3.9-15.5-13.4-8.6-8.3-16.2-15.1-17-15.1-3.4,0-4.3,1.1-3.5,4.3,1.6,6.1,5.1,37.7,4.5,39.8-.6,1.8-.4,2.1,1,1.6.9-.4,2.8-.7,4.2-.7,2.4,0,2.5-.1,1.1-1.8-1-1.1-2.3-7.4-3.6-17.7-1.1-8.8-2-16.1-1.9-16.2s8,7.3,17.5,16.4c10.5,10,17.7,16.2,18.2,15.7.6-.6-.1-8.5-1.6-19.9-1.4-10.5-2.3-20.5-2.1-22.3.3-2.9,0-3.2-2.3-3.1-1.4,0-3.1.3-3.8.6Z"/>
  <path class="cls-1" d="M450,13.9c-8,2.5-13.2,7.6-15.6,15.7-3.7,12.3.6,23.1,11,28,7.8,3.6,20,3,24.6-1.3.8-.7,2-4.4,2.6-8.1s1.4-7.4,1.8-8.3c.6-1.3-1-1.7-9.8-2.8-10.6-1.3-12.6-1.1-12.6,1.3,0,1,2.3,1.6,7.5,2.1,8.4.8,8.3.7,6.9,9.7-.8,4.3-4,6.2-11,6-11.3-.1-17.9-10.1-15.4-23.2,1.3-6.9,4.3-11.6,9.1-14,7.7-4,18.6-1.3,23.3,5.7l2.4,3.4.5-3.3c.5-2.7.1-3.8-2.3-6-4.9-4.6-16.2-6.9-23-4.9Z"/>
  <path class="cls-1" d="M29.8,17.7c-2,.3-2.8,1-2.8,2.5,0,1.1-3.6,6.5-7.9,12l-8,9.9-.5-3.3c-.3-1.8-1-5.7-1.5-8.6-.5-3-.7-6.2-.4-7.1.4-1.4-.2-1.6-3.7-1.3-3.4.4-4,.7-3.4,2.1,1.1,2.4,6.4,34,6.5,38.9.2,4.3.2,4.4,3.2,3.8,1.6-.3,3.6-.6,4.4-.6,1.3,0,1.3-.2.2-1.6-1.2-1.4-5.1-20.4-4.4-21.2.1-.1,5.7,4.1,12.3,9.3,10.8,8.4,12.7,9.5,16.2,9.5,2.2,0,4-.3,3.9-.8,0-.4-5.8-5.1-13-10.5-7.1-5.4-12.9-10.2-12.9-10.7,0-.4,4-5.8,9-11.9,5.9-7.3,8.4-11,7.2-11-.9.1-2.9.4-4.4.6Z"/>
  <path class="cls-1" d="M488.3,21.4c.1,6.2-5.6,38.1-7.1,39.8-.8,1-1.1,1.8-.6,1.8s6.1.9,12.4,2c15.4,2.7,15.6,2.6,16.9-1.1.6-1.8,1.1-3.4,1.1-3.6s-1.4.4-3.1,1.3c-2.8,1.4-4.1,1.4-11.5.3-6.9-1-8.3-1.5-8-2.8.3-.9,1-5.1,1.7-9.4,1-6.3,1.5-7.7,2.8-7.3.9.3,3.9.8,6.6,1.2,2.8.3,6,1.2,7.1,2,2,1.2,2.2,1.1,2.8-1.8.9-4.6.8-5-1.4-3.8-1.4.7-4,.7-9.1-.1-7-1.2-7.1-1.3-6.5-3.9.3-1.5.8-5.1,1.2-7.9.6-4.7.9-5.2,2.8-4.7,1.1.2,4.7.8,7.9,1.1,3.2.4,6.8,1.6,8.1,2.6,3.2,2.5,3.6,2.4,3.6-1.1s.6-3.2-16.1-5.8l-11.7-1.8.1,3Z"/>
  <path class="cls-1" d="M256.7,39.6c-1.5,1.6-.7,5.3,1.4,5.9,3,1,5.8-1.9,4.3-4.3-1.2-1.8-4.5-2.8-5.7-1.6Z"/>
  <path class="cls-1" d="M291.2,68.6c-2.4,1.7-2.9,5.6-.9,7.2.6.6,2.8,1.4,4.7,1.9,2.5.7,3.5,1.5,3.5,2.9,0,2.6-4.1,3.1-6.6.8-2.6-2.3-4.8-.5-2.4,2,4.4,4.3,12,2.5,12-2.9,0-2.9-.3-3.2-7.5-6.5-.8-.4-1.5-1.3-1.5-2.1,0-2,4.4-2.3,6.5-.4,1.4,1.2,2,1.3,2.6.4.9-1.6-3.1-4.9-6-4.9-1.2,0-3.2.7-4.4,1.6Z"/>
  <path class="cls-1" d="M167,76.5c0,7.8.2,8.5,2,8.5,1.5,0,2-.7,2-2.9,0-2.4.5-2.9,3.2-3.5,4.2-.8,5.8-2.3,5.8-5.5,0-3.9-1.8-5.1-7.7-5.1h-5.3v8.5ZM176,71.5c1.8,2.1.5,4.5-2.5,4.5-2.1,0-2.5-.5-2.5-3,0-2.3.5-3,1.9-3,1,0,2.4.7,3.1,1.5Z"/>
  <path class="cls-1" d="M187,68.2c0,.2-1.3,4.1-3,8.6-2.5,6.9-2.7,8.2-1.4,8.2.9,0,1.8-.9,2.1-2,.8-2.9,7.9-2.9,8.8,0,.3,1.1,1.3,2,2.1,2,1.7,0,1.6-.6-2.1-10.5-1.7-4.4-2.8-6.1-4.4-6.3-1.2-.2-2.1-.2-2.1,0ZM190.9,76.7c.1.7-.8,1.3-1.9,1.3q-2.3,0-.9-3.7c1-2.6,1.2-2.7,1.9-.8.5,1.1.9,2.6.9,3.2Z"/>
  <path class="cls-1" d="M201,76.5c0,7.8.2,8.5,2,8.5,1.6,0,2-.7,2-3.5,0-4.7,2.5-4.7,4.7,0,1,2.1,2.4,3.5,3.5,3.5,1.7,0,1.7-.2.1-3.5-1.5-3.2-1.5-3.6,0-5.3,4-4.4.9-8.2-6.9-8.2h-5.4v8.5ZM210.5,73c0,2-.6,2.6-2.7,2.8-2.5.3-2.8,0-2.8-2.8s.3-3.1,2.8-2.8c2.1.2,2.7.8,2.7,2.8Z"/>
  <path class="cls-1" d="M217,69c0,.5,1.1,1,2.5,1,2.4,0,2.5.2,2.5,7.5,0,6.8.2,7.5,2,7.5s2-.7,2-7.5c0-7.3.1-7.5,2.5-7.5,1.4,0,2.5-.5,2.5-1,0-.6-3-1-7-1s-7,.4-7,1Z"/>
  <path class="cls-1" d="M235,76.5c0,6.8.3,8.5,1.5,8.5,1,0,1.5-1.6,1.7-6.1l.3-6.2,3.4,6.2c2.7,4.7,4,6.1,5.8,6.1,2.2,0,2.3-.3,2.3-8.5s-.2-8.5-2-8.5c-1.6,0-1.9.8-2.2,5.7l-.3,5.8-3.3-5.8c-2.2-3.9-3.8-5.7-5.2-5.7-1.8,0-2,.7-2,8.5Z"/>
  <path class="cls-1" d="M255,76.5v8.5h6c3.3,0,6-.4,6-1s-1.8-1-4-1c-3.6,0-4-.3-4-2.5s.4-2.5,3.5-2.5c2.4,0,3.5-.5,3.5-1.5s-1.1-1.5-3.5-1.5c-3.1,0-3.5-.3-3.5-2.5s.4-2.5,4-2.5c2.2,0,4-.5,4-1,0-.6-2.7-1-6-1h-6v8.5Z"/>
  <path class="cls-1" d="M272,76.5c0,6.9.3,8.5,1.5,8.5,1,0,1.5-1.1,1.5-3.5s.5-3.5,1.4-3.5c.8,0,2.4,1.6,3.6,3.5s2.8,3.5,3.6,3.5c1.8,0,1.8-.4-.2-4.2-1.5-2.8-1.5-3.2,0-4,1.9-1.1,2.1-5.9.4-7.6-.7-.7-3.6-1.2-6.5-1.2h-5.3v8.5ZM281,71.5c1.7,2-.3,4.5-3.6,4.5-2,0-2.4-.5-2.4-3s.4-3,2.4-3c1.3,0,2.9.7,3.6,1.5Z"/>
  <path class="cls-1" d="M307,76.5c0,6.9.3,8.5,1.5,8.5,1,0,1.5-1.1,1.5-3.5,0-3.4.1-3.5,4-3.5s4,.1,4,3.5c0,2.4.5,3.5,1.5,3.5,1.2,0,1.5-1.6,1.5-8.5s-.3-8.5-1.5-8.5c-1,0-1.5,1.1-1.5,3.5,0,3.4-.1,3.5-4,3.5s-4-.1-4-3.5c0-2.4-.5-3.5-1.5-3.5-1.2,0-1.5,1.6-1.5,8.5Z"/>
  <path class="cls-1" d="M327,76.5c0,6.9.3,8.5,1.5,8.5s1.5-1.6,1.5-8.5-.3-8.5-1.5-8.5-1.5,1.6-1.5,8.5Z"/>
  <path class="cls-1" d="M336,76.5c0,6.9.3,8.5,1.5,8.5,1,0,1.5-1,1.5-2.9,0-2.5.4-2.9,3.6-3.4,4.6-.8,6.4-2.3,6.4-5.6,0-3.9-1.8-5.1-7.7-5.1h-5.3v8.5ZM345,71.5c1.7,2-.3,4.5-3.6,4.5-2,0-2.4-.5-2.4-3s.4-3,2.4-3c1.3,0,2.9.7,3.6,1.5Z"/>
</svg>