<?xml version="1.0" encoding="UTF-8"?>
<svg id="Layer_1" data-name="Layer 1" xmlns="http://www.w3.org/2000/svg" viewBox="0 0 113 90">
  <defs>
    <style>
      .cls-1 {
        fill: #0a2c4a;
      }
    </style>
  </defs>
  <path class="cls-1" d="M34.02,16.38c-2.51.47-3.82,1.41-4.45,3.77l-5.28,19.97h-2.56l-4.87-17.67-4.66,17.77h-2.62L3.98,19.74c-.68-2.51-1.88-3.35-3.61-3.67v-.31h9.31v.31c-1.57.31-2.2,1.47-1.47,4.3l4.29,16.35,4.08-15.31-.47-1.78c-.73-2.51-1.94-3.35-3.66-3.72v-.26h9.37v.26c-1.57.37-2.25,1.47-1.47,4.35l4.34,16.46,4.29-16.46c.79-3.2,2.41-4.67,4.6-5.14,1.88-.42,1.57,1.05.42,1.26h0Z"/>
  <path class="cls-1" d="M58.41,26.65h-21.88c-.05.47-.05,1-.05,1.57,0,7.29,3.87,12.06,9.58,12.06,3.4,0,7.69-1.68,10.1-6.29l1.73,1.05c-2.09,3.77-6.38,5.71-11.46,5.71-8.16,0-13.76-5.14-13.76-12.74s5.55-12.79,13.34-12.79c7.07,0,12.4,4.3,12.4,10.85h-3.72c0-6.45-3.61-10.38-8.58-10.38s-8.84,4.19-9.52,10.38h21.82v.58h0Z"/>
  <path class="cls-1" d="M76.78,18.43l-1.88,1.1c-.99-1.41-2.3-3.93-6.44-3.93-3.35,0-4.55,1.63-4.55,3.56,0,6.45,13.76,7.55,13.76,15.15,0,3.62-3.19,6.29-8.79,6.29-3.45,0-7.38-1-9.26-3.62l1.67-1.31c1.2,3.15,4.76,4.56,7.59,4.56,3.14,0,5.28-1.78,5.28-4.4,0-6.66-13.61-7.55-13.61-14.62,0-3.35,3.14-5.92,8.32-5.92,3.56,0,6.44,1.15,7.9,3.15h0Z"/>
  <path class="cls-1" d="M94.57,36.14c-1.47,3.51-4.24,4.61-7.01,4.61-3.82,0-6.02-2.25-6.02-5.77v-18.66h-3.24v-.58c2.93,0,6.58-6.23,6.56-8.12h.5v8.12h5.96v.58h-5.96v18.66c0,3.15,1.2,5.19,3.19,5.19,1.31,0,3.24-1.52,4.34-5.24l1.67,1.21Z"/>
  <path class="cls-1" d="M58.11,55.13h-21.88c-.05.47-.05,1-.05,1.57,0,7.29,3.87,12.06,9.58,12.06,3.4,0,7.69-1.68,10.1-6.29l1.73,1.05c-2.09,3.77-6.38,5.71-11.46,5.71-8.16,0-13.76-5.14-13.76-12.74s5.55-12.79,13.34-12.79c7.07,0,12.4,4.3,12.4,10.85h-3.72c0-6.45-3.61-10.38-8.58-10.38s-8.84,4.19-9.52,10.38h21.82v.58h0Z"/>
  <path class="cls-1" d="M59.1,68.95c1.62-.32,2.72-1.5,2.72-4.44v-12.79c0-2.94-1.1-4.07-2.72-4.44v-.27l5.96-2.78h.52v5.99c3.14-4.81,6.07-6.53,9.42-6.53s7.17,1.55,7.17,8.61v12.2c0,3.05.89,4.07,2.72,4.44v.27h-9.26v-.27c1.62-.32,2.72-1.5,2.72-4.44v-11.13c0-5.29-1.67-8.4-5.02-8.4-2.62,0-4.92,1.87-7.75,6.26v13.27c0,3.05.94,4.07,2.72,4.44v.27h-9.21v-.27h0Z"/>
  <path class="cls-1" d="M112.74,66.3c0,1.83-1.05,2.93-2.88,2.93-2.35,0-3.45-1.99-3.45-5.98v-2.41c-1.36,5.14-5.08,8.39-9.99,8.39-6.18,0-10.67-5.14-10.67-12.63s4.81-12.9,11.88-12.9c3.66,0,6.8,1.36,8.79,4.03v-9.75c0-2.88-1.1-4.03-2.72-4.35v-.26l5.96-2.73h.58v30.56c0,3.98.05,6.4,1.1,6.4.52,0,.89-.53.89-1.31h.52,0ZM98.45,44.33c-5.13,0-8.9,4.87-8.9,12.37,0,7.02,3.35,11.48,7.95,11.48s8.9-4.25,8.9-11.74v-7.92c-1.99-2.31-4.82-4.19-7.95-4.19Z"/>
  <path class="cls-1" d="M55.62,8.44l1.73-4.63c.46-1.22.36-1.84-.38-1.84-1.95,0-4.62,4.23-5.39,7.04l-.45,1.63h-1.47l2.1-7.57c.18-.71-.11-.95-1.38-1.03l.07-.36c1.23-.26,2.28-.61,3.19-.97h.16c-.16.75-.35,1.52-.55,2.3-.25.92-.44,1.61-.7,2.37,1.76-3.02,3.31-4.6,5.06-4.6,1.54,0,1.94,1.25,1.24,3.09l-1.76,4.62c-.35.94-.24,1.25.17,1.25.69,0,1.19-.72,1.84-1.68l.31.25c-.84,1.51-1.78,2.58-2.98,2.58-1.08,0-1.41-.88-.82-2.45h.01s0,0,0,0Z"/>
  <path class="cls-1" d="M60.67,7.41c0-3.66,2.49-6.6,5.57-6.6,1.5,0,2.3.66,2.3,1.95,0,2.33-2.76,3.38-6.13,3.36-.04.36-.08.73-.08,1.07,0,1.68.61,2.55,1.88,2.55,1.15,0,2.06-.66,3.17-1.98l.36.29c-1.15,1.98-2.52,2.85-4.24,2.85-1.83,0-2.83-1.22-2.83-3.49h.01v.02ZM67.02,2.62c0-.75-.37-1.15-1.07-1.15-1.7,0-2.92,1.93-3.41,3.96,3.39-.2,4.48-1.26,4.48-2.81h0Z"/>
  <path class="cls-1" d="M71.09,3.43c-.07-1.13-.21-1.28-1.38-1.36l.04-.37c.96-.22,1.82-.53,2.68-.9h.04c.22,2.65.28,5.14.19,7.49l4.22-7.22h.31l.6,8.25c2.06-2.38,2.9-4.68,2.69-7.26-.07-.86.21-1.3.83-1.3s1.02.44,1.02,1.31c0,2.76-2.89,6.6-5.03,8.77h-.83l-.56-6.69-4.01,6.69h-.82c.18-2.43.1-5.61.02-7.4h-.01Z"/>
  <path class="cls-1" d="M34.53,82.37c0-3.19,1.96-6.67,5.5-6.67,1.52,0,2.43.65,2.43,1.79,0,.83-.47,1.31-1.15,1.31-.58,0-.9-.36-.9-.92,0-.47.22-.66.22-.98,0-.36-.29-.53-.8-.53-2.04,0-3.55,2.73-3.55,5.62,0,1.5.41,2.68,1.91,2.68s2.44-1.19,3.24-2.44l.41.23c-1.08,2.21-2.43,3.44-4.38,3.44s-2.93-1.27-2.93-3.52h0Z"/>
  <path class="cls-1" d="M43.32,82.38c0-3.15,1.9-6.68,5.43-6.68,2.01,0,3.16,1.24,3.16,3.51,0,3.15-1.9,6.68-5.43,6.68-2.01,0-3.16-1.24-3.16-3.51ZM50.2,78.41c0-1.46-.44-2.05-1.48-2.05-2.24,0-3.69,3.77-3.69,6.84,0,1.46.44,2.05,1.48,2.05,2.24,0,3.69-3.77,3.69-6.84Z"/>
  <path class="cls-1" d="M64.38,83.43l1.74-4.67c.47-1.24.37-1.83-.4-1.83-1.97,0-4.41,4.25-5.14,6.79l-.55,1.95h-1.49l2-6.91c.39-1.33.26-1.88-.42-1.88-2.01,0-4.39,4.24-5.14,6.84l-.56,1.95h-1.5l2.13-7.64c.19-.72-.11-.95-1.4-1.04l.07-.37c1.24-.26,2.31-.62,3.24-.97h.16c-.16.77-.34,1.54-.55,2.33l-.6,2.07c1.45-2.5,2.94-4.33,4.91-4.33,1.35,0,1.77,1.1,1.15,3.12l-.28.88c1.41-2.37,2.89-4,4.73-4,1.39,0,1.87,1.26,1.15,3.12l-1.78,4.66c-.34.86-.24,1.26.19,1.26.71,0,1.22-.73,1.86-1.69l.32.24c-.94,1.65-1.8,2.6-3.1,2.6-1,0-1.29-.97-.73-2.47h0Z"/>
  <path class="cls-1" d="M68.88,88.32l2.73-10.24c.23-.83-.23-.95-1.42-1.04l.06-.35c1.28-.26,1.94-.52,2.97-.99h.26c-.15,1.1-.32,2.19-.7,3.66,1.22-2.3,2.95-3.66,4.61-3.66,1.15,0,1.78.89,1.78,2.49,0,3.73-2.78,7.71-6.11,7.71-.73,0-1.38-.18-1.89-.47l-.77,2.77c-.24.86.05,1.04,1.35,1.28l-.05.27h-4.64l.07-.28c1.25-.22,1.55-.41,1.74-1.15ZM73.12,85.19c2.18,0,4.36-3.51,4.36-6.77,0-.97-.29-1.42-.95-1.42-1.58,0-3.75,2.62-4.36,4.82l-.61,2.16c.22.79.76,1.22,1.55,1.22h0Z"/>
  <path class="cls-1" d="M80.5,83.27c0-3.5,2.78-7.56,6.11-7.56.85,0,1.49.3,1.91.87.45-.36.83-.68,1.21-1.05h.33l-2.15,7.95c-.26.97-.23,1.29.24,1.29.57,0,1-.5,1.83-1.72l.32.23c-.9,1.79-1.94,2.62-2.96,2.62s-1.31-.83-.83-2.47l.44-1.5c-1.29,2.52-2.94,3.97-4.51,3.97-1.21,0-1.94-.85-1.94-2.63h0ZM87.81,77.74c0-.87-.4-1.3-1.22-1.3-2.2,0-4.43,3.41-4.43,6.74,0,.98.29,1.47,1.11,1.47,1.9,0,4.54-4.58,4.54-6.91Z"/>
  <path class="cls-1" d="M97.33,83.43l1.75-4.67c.46-1.23.37-1.86-.39-1.86-1.97,0-4.67,4.26-5.45,7.11l-.45,1.65h-1.5l2.13-7.64c.19-.72-.11-.95-1.4-1.04l.07-.37c1.24-.26,2.31-.62,3.24-.97h.16c-.16.77-.35,1.54-.55,2.33-.25.93-.44,1.63-.71,2.39,1.76-3.06,3.34-4.65,5.11-4.65,1.56,0,1.96,1.26,1.25,3.12l-1.78,4.66c-.36.94-.23,1.26.18,1.26.7,0,1.21-.73,1.87-1.69l.32.24c-.85,1.53-1.8,2.6-3.01,2.6-1.1,0-1.42-.89-.83-2.47h0Z"/>
  <path class="cls-1" d="M100,89.03c0-.6.39-.73,1.09-.63,1.55.2,2.75-.22,4.23-1.67-.1-3.34-.63-6.67-1.25-8.76-.21-.81-.5-.93-1.54-.98v-.37c1-.23,1.9-.57,2.54-.91h.04c.96,2.84,1.6,6.32,1.62,9.45,2.36-2.91,3.23-5.67,2.91-8.2-.09-.86.16-1.28.76-1.28.73,0,1.14.61,1.14,1.65,0,3.94-6.87,12.63-10.45,12.63-.71,0-1.09-.32-1.09-.92h0Z"/>
</svg>