<?xml version="1.0" encoding="utf-8"?>
<!-- Generator: Adobe Illustrator 30.4.0, SVG Export Plug-In . SVG Version: 9.03 Build 0)  -->
<svg version="1.0" id="Layer_1" xmlns="http://www.w3.org/2000/svg" xmlns:xlink="http://www.w3.org/1999/xlink" x="0px" y="0px"
	 viewBox="0 0 342.53 231.33" style="enable-background:new 0 0 342.53 231.33;" xml:space="preserve">
<style type="text/css">
	.st0{fill:#0A2C4A;}
</style>
<path class="st0" d="M261.84,210.03c0,11.76-9.54,21.3-21.3,21.3c-11.76,0-21.3-9.54-21.3-21.3s9.54-21.3,21.3-21.3
	C252.3,188.72,261.84,198.26,261.84,210.03z M232.9,224.74c7.62,3.9,16.32,1.47,20.79-4.71c4.54-6.28,4.16-15.18-0.91-21.08
	c-4.97-5.78-13.87-7.3-20.81-3.12c-5.32,3.2-7.76,8.85-7.68,14.67C224.36,216.04,227.07,221.75,232.9,224.74z"/>
<path class="st0" d="M169.59,216.16c-4.58-1.6-8.67-0.29-12.67-0.84c-0.52-0.92-0.47-3.77,0.37-3.79l18.19-0.53
	c-1.02,13.92-12.13,22.19-25.31,19.58c-10.13-2.01-16.62-10.49-16.75-20.16c-0.13-10.08,6.44-18.59,15.74-20.74
	c10.35-2.4,20.58,1.92,24.86,12.11c-3.19,1.62-5.44,0.1-7.26-2.45c-4.17-5.82-11.79-7.17-18.26-4.73
	c-6.25,2.36-10.4,8.93-9.94,16.44c0.48,7.74,5.62,13.63,12.29,15.05C158.62,227.74,166.46,225.03,169.59,216.16z"/>
<path class="st0" d="M207.51,230.59l-11.03-16.8l-6.52,0.36l-0.06,16.24c-1.65-0.26-3.43-0.15-5.08,0.12
	c0.39-14.23,0.54-27.01-0.04-40.95l14.79,0.23c6.62,0.1,11.58,4.35,12.23,9.87c0.83,6.98-2.7,12.32-9.61,13.91l11.08,16.75
	L207.51,230.59z M202.36,208.82c4.08-1.46,5.04-5.75,4.22-9.22c-0.71-3-3.62-5.58-7.55-5.6l-9.13-0.03l0.12,15.43
	C194.03,209.82,198.26,210.29,202.36,208.82z"/>
<path class="st0" d="M65.34,220.82l-20.26-0.12c-1.87,3.14-2.81,6.12-3.81,9.6c-1.75,0.27-3.47,0.18-5.35-0.2l15.49-40.43l7.08,0.09
	l15.47,40.42c-1.63,0.26-3.27,0.28-5.1,0.06L65.34,220.82z M63.4,216.18L55,194.71l-8.63,21.52L63.4,216.18z"/>
<path class="st0" d="M26.79,228.09c-5.75,3.78-12.94,3.8-18.56,0.89c-4.33-2.24-6.91-6.49-6.59-10.72c1.7-0.22,3.72-0.31,4.51,0.14
	c0.71,0.4,0.48,2.15,1.12,3.3c2.56,4.56,7.9,5.61,12.78,4.56c3.4-0.73,5.72-2.81,6.03-5.89c0.3-2.9-1.03-6.1-4.31-7.04l-10.12-2.91
	c-4.64-1.33-7.91-4.18-8.46-8.03c-0.68-4.77,0.71-8.86,5.03-11.33c4.81-2.75,11.05-2.71,16.02-0.23c4,2,6.09,5.76,5.86,9.83
	l-4.83,0.03c-0.49-5.55-4.96-7.91-10.23-7.33c-3.54,0.39-6.4,1.99-7.01,5.28c-0.64,3.45,1.44,6.36,5.28,7.4l9.32,2.53
	c4.09,1.11,7.36,4.17,8.05,7.32C31.7,220.49,30.97,225.34,26.79,228.09z"/>
<path class="st0" d="M297.17,190c1.33-0.58,3.41-0.22,4.89-0.33l0.01,26.32c0,9.46-6.76,15.24-16.02,15.09
	c-7.62-0.12-14.9-4.56-15.01-12.83l-0.37-28.71l5.08,0.1l0.07,27.35c0.01,5.93,4.61,9.55,10.29,9.68
	c6.41,0.15,11.29-4.16,11.15-10.66L297.17,190z"/>
<polygon class="st0" points="106.17,189.57 111.82,189.8 96.36,230.27 89.39,230.33 74.46,189.69 79.72,189.64 92.8,225.66 "/>
<path class="st0" d="M319.11,214.45l-0.26,15.94l-5.03,0.07c0.36-13.99,0.43-26.95-0.09-40.89l13.3,0.13
	c7.41,0.08,13.06,4.2,13.61,11.04c0.54,6.73-3.86,13.2-11.22,13.41L319.11,214.45z M330.04,209.56c4.19-1,5.68-4.75,5.55-8.04
	c-0.11-2.91-1.68-6.1-5.17-6.98c-3.68-0.93-7.38-0.63-11.52-0.56l0.06,15.96C322.72,210.11,326.29,210.45,330.04,209.56z"/>
<g>
	<path class="st0" d="M254.9,11.73c-16.35-5.01-33.48-3.1-49.42,0.26c-5,1.05-8.68,3.93-11.65,7.86l-36.28,48.11
		c-0.88-2.75,0.2-4.78,1.65-6.96l31.52-47.38C200.99-1.82,235.86-1.6,255.19,2.05c4.37,0.82,8.18,2.64,11.73,5.35l73.49,56.19
		c1.01,1.32,0.39,3.76,0.36,4.78l-63.86-42.86C269.51,21.44,263.72,14.43,254.9,11.73z"/>
	<path class="st0" d="M252.08,30.41c-13.17-2.75-25.89-2.11-38.63-0.36c-9.28,1.27-16.69,5.57-22.83,12.52l-33.05,37.36
		c-0.98-3.13,0.38-5.11,2.15-7.38l30.64-39.27c4.56-5.85,10.87-9.23,18.11-10.83c16.98-3.74,44.64-4.86,58.26,4.17l73.75,48.89
		c0.69,1.04,0.78,3.22,0.21,4.54L264.2,35.97C260.37,33.76,256.82,31.4,252.08,30.41z"/>
	<path class="st0" d="M213.81,50.03c-7.49,1.1-14.08,3.47-19.4,8.32l-36.8,33.52c-1.11-2.5-0.03-4.53,1.85-6.52l29.08-30.85
		c5.4-5.72,11.3-10.08,19.12-11.88c17.7-3.89,35.62-4.12,53.26,0.62l79.61,44.2c0.55,1.11,0.68,3.21,0.19,4.59l-85.8-41.02
		C241.32,47.78,228.1,48,213.81,50.03z"/>
	<path class="st0" d="M253.52,70.78c-12.23-4.57-44.04-3.61-57.1,5.51l-38.97,27.21c-0.33-1.67-0.46-4.07,0.41-4.78l34.41-28.47
		c4.26-3.53,8.9-6.25,14.4-7.58c17.54-4.22,35.34-4.42,52.94-0.11l80.62,36.27c0.95,0.43,0.93,3.23,0.59,4.6L253.52,70.78z"/>
	<path class="st0" d="M340.63,167.81l-183.07-0.02c-0.46-1.25-0.35-2.28-0.07-3.23l59.12-7.74c9.69-1.27,18.77-0.51,28.62,0.27
		l95.52,7.56C340.86,165.1,341.16,165.95,340.63,167.81z"/>
	<path class="st0" d="M254.16,90.51c-17.24-4.91-36.11-3.71-52.27,2.3l-44.03,21.92c-0.86-0.12-0.85-1.91-0.49-3.06
		c0.35-1.11,1.33-1.68,2.76-2.58l28.85-18.18c7.43-4.68,15.03-8.59,24.04-9.9c15.16-2.21,31.24-3.78,46.08,1.37l81.74,28.39
		c0.35,1.93,0.25,3.55-0.6,4.25L254.16,90.51z"/>
	<path class="st0" d="M254.74,109.78c-17.42-3.78-34.76-3.39-51.26,1.64l-46.09,16.95c-0.32-1.08-0.41-4.39,0.41-4.77l42.21-19.49
		c18.96-6.96,40.15-7.63,59.7-2.31l81.15,22.08l-0.05,4.54L254.74,109.78z"/>
	<path class="st0" d="M121.79,47.94c-3.02-3.67-6.99-5.27-10.88-6.93c-12.84-3.34-25.81-3.8-38.65,0.01L1.53,85.75
		c-0.29-1.45-0.56-3.84,0.25-5.18L67.71,32.5c15.99-5.66,33.11-4.84,48.79,1.2c2.09,1.89,4.94,3.1,6.62,5.43l29.29,40.57
		c1.53,2.11,1.25,4.61,0.49,6.04L121.79,47.94z"/>
	<path class="st0" d="M240.18,145.54c-9.6-0.86-18.29-0.7-27.62,0.71l-55.15,8.31l0.05-4.5l50.17-11.24
		c13.41-3,26.54-2.97,40.22-1.14l92.84,12.43l0.17,4.45L240.18,145.54z"/>
	<path class="st0" d="M120.85,68.33c-10.74-9.96-37.53-10.75-48.71-5.22L1.45,98.06c-0.4-1.67-0.22-3.09,0.11-4.82l60.68-35.89
		c3.53-2.09,6.98-4.09,10.9-5.09c14.83-3.77,39.77-2.4,48.18,6.63l32.11,34.44c-0.06,1.89,0.3,3.13-0.34,4.91L120.85,68.33z"/>
	<path class="st0" d="M246.7,126.76c-17.26-2.65-32.85-0.37-48.84,3.87l-39.88,10.57c-1.04-0.46-1.17-4.03-0.2-4.47l45.48-15.18
		c17.85-5.96,36.42-4.91,54.84-1.23l82.6,16.52c0.22,1.08,0.38,2.37,0,4.39L246.7,126.76z"/>
	<path class="st0" d="M117.45,87.1c-15.01-8.15-33.34-7.47-48.8-1.62L1.47,110.89c-0.38-1.6-0.2-2.88,0.05-4.86l65.38-30.07
		c11.56-5.31,24.24-4.98,36.5-3.13c8.39,1.27,15.43,4.69,21.88,10.05l28.17,23.43l0.04,4.7L117.45,87.1z"/>
	<path class="st0" d="M115.66,106.95c-13.04-6.29-28.27-6.13-41.84-2.28L1.92,125.1c-0.86-0.82-0.97-3.54-0.28-4.76l66.54-23.95
		c16.28-5.86,33.82-4.45,49.57,1.88l35.2,22.03c0.72,1.15,0.73,3.62,0.48,4.87L115.66,106.95z"/>
	<path class="st0" d="M150.44,168.13L1.5,168.02c-0.31-1.54-0.17-2.49-0.01-3.37l85.22-8.8c6.9-0.71,13.33-0.44,20.12,0.73
		l44.27,7.63c1.86,0.32,2.54,0.81,2.52,2.3C153.6,168.16,152.76,168.13,150.44,168.13z"/>
	<path class="st0" d="M108.57,144.86c-8.58-1.7-16.25-1.85-24.47-0.88l-82.62,9.75l-0.13-4.87l78.53-13.72
		c10.22-1.79,20.41-1.78,30.31,1.11l43.41,12.66l-0.25,4.85L108.57,144.86z"/>
	<path class="st0" d="M117.15,126.81c-12.43-4.29-25.17-5.91-38.32-3.24L1.98,139.16c-1.06-1.05-0.97-3.25-0.28-4.76l67.72-17.87
		c14.82-3.91,30.42-5.34,44.51,0.77l37.57,16.32c2.02,0.88,2.52,3.53,1.57,5.58L117.15,126.81z"/>
</g>
</svg>
