<?xml version="1.0" encoding="UTF-8"?>
<svg id="Layer_1" data-name="Layer 1" xmlns="http://www.w3.org/2000/svg" viewBox="0 0 974.58 169.34">
  <defs>
    <style>
      .cls-1 {
        fill: #0a2c4a;
      }
    </style>
  </defs>
  <g>
    <path class="cls-1" d="M131.73,113.95c1.45,32.76-21.37,49.57-52.05,55.39l-.18-46.68c-.02-5.04-2.86-9.14-7.33-11l-25.74-10.71c-9.76-4.06-18.66-9.15-26.49-16.13-10.07-8.97-15.59-21.12-15.12-34.65C4.85,19.97,28.26,3.31,57.03,0l-.04,45.14c0,5.92,3.2,10.18,8.57,12.37l26.52,10.8c8.52,3.47,16.23,7.84,23.28,13.59,9.96,8.13,15.8,19.15,16.37,32.05Z"/>
    <path class="cls-1" d="M110.13,58.92c-1.6,1.69-4.92,1.67-6.82.89l-27.83-11.39c-3.68-1.51-6.24-4.29-6.24-8.37l-.02-40.39c27.17-.45,50.43,9.95,66.85,31.87l-25.94,27.39Z"/>
    <path class="cls-1" d="M66.81,169.64c-26.53,1.01-50.72-9.97-66.81-31.67l26.05-27.5c1.81-1.91,4.96-1.22,7.23-.66,9.1,4.26,18.18,7.64,27.45,11.36,3.61,1.43,5.98,4.28,6.06,8.23l.02,40.24Z"/>
  </g>
  <path class="cls-1" d="M745.53,43.29c4.11,6.53,1.62,14.86-4.48,19.08-3.9,2.7-8.35,4.04-13.2,4.07l-26,.16c1.89-3.5,2.81-6.56,2.81-10.25V17.12c-.01-3.56-.95-6.57-2.8-9.8l25.65.14c7.28.04,15.75,4.3,16.82,12.03,1.18,8.54-4.49,13.4-12.46,16.08,5.61,1.21,10.63,2.91,13.67,7.73ZM732.81,16.24c-2.38-2.17-5.44-2.99-8.38-3.01l-11.3-.08.03,19.57,12.27-.11c4.05-.03,7.82-2.34,9.14-5.51,1.57-3.78,1.3-8.08-1.75-10.87ZM735.45,57.01c3.65-3.78,3.93-9.43,1.14-13.62-2.25-2.59-5.32-4.3-8.8-4.37l-14.69-.27.05,21.82,12.78-.06c3.47-.02,6.73-1.22,9.51-3.51Z"/>
  <path class="cls-1" d="M595.52,39.61l-16.71-.15.02,21.07,21.78-.19c4.03-.04,7.23-1.9,9.43-5.41l.12,11.65h-42.67c1.92-3.42,2.82-6.56,2.81-10.22l-.07-40.2c0-3.23-1.03-5.96-2.74-8.8l41.55-.04-.13,10.43c-2.2-2.77-4.91-4.17-8.28-4.2l-21.81-.21v20.26s16.52-.14,16.52-.14c3.23-.24,6.12-.98,8.5-3.32l.05,12.8c-2.29-2.23-5.02-3.1-8.38-3.32Z"/>
  <path class="cls-1" d="M386.91,48.88l-24.45-.08-3.7,10.53c-.86,2.46-.39,4.86.96,7.28l-12.89-.04c1.9-2.26,3.39-4.14,4.46-6.86l20.51-52.35,7.5-.05,19.75,49c1.45,3.67,2.83,6.74,5.46,10.23l-14.56.05c1.2-2.83,1.17-5.39.43-8.06l-3.46-9.66ZM384.43,42.63l-10.02-24.9-9.67,25.07,19.7-.16Z"/>
  <path class="cls-1" d="M826.6,7.41c-1.96,2.93-2.71,6.17-2.73,9.76l-.11,26.25c-.05,10.59-5.07,19.99-15.26,22.96-5.3,1.54-10.71,1.55-16.07.19-10.17-2.58-15.88-11.78-15.95-22.17l-.16-26.74c-.02-3.57-.44-6.83-2.88-10.19l14.38-.14c-2.04,3.01-2.89,6.2-2.89,9.8l.03,27.24c0,4.82,1.82,9.68,5.65,12.69,5.75,4.51,14.3,4.57,20.25.32,3.62-2.58,5.96-7.01,5.98-11.55l.16-29.68c.02-3.24-1.05-6.02-2.79-8.78l12.39.06Z"/>
  <path class="cls-1" d="M368.35,138.19l.04,13.63c.01,3.83.84,7.26,3.37,10.33l-14.85.02c2.09-3.09,2.9-6.25,2.9-9.97v-39.6c-.01-3.53-.85-6.53-2.88-9.59l21.56.08c10.35.04,19.8,6.08,19.96,17.09s-9.62,17.99-20.41,18h-9.69ZM389.37,119.94c.11-5.34-3.21-9.17-8.12-10.37-4.2-1.03-8.44-.82-12.96-.67v23.39c4.33.12,8.35.26,12.39-.61,5.6-1.21,9.22-5.73,8.68-11.74Z"/>
  <g>
    <path class="cls-1" d="M314.26,144.55l-24.54-.06-3.46,9.81c-.95,2.69-.56,5.31.59,7.88l-12.6-.08c2.04-2.33,3.44-4.29,4.5-6.99l20.35-51.99,7.52-.09,21.29,52.68c.99,2.46,2.29,4.22,4.03,6.4l-14.7.07c1.2-2.55,1.47-5.01.58-7.56l-3.54-10.08ZM311.8,138.48l-10.02-24.96-9.72,24.98,19.74-.02Z"/>
    <path class="cls-1" d="M213.48,144.02c6.46,13.79,25.7,15.45,38.27,5.76l.96,4.89c-11.11,12.02-31.76,10.92-42.86-.21-5.84-5.86-8.25-13.55-8.3-21.78-.08-12.56,6.78-23.61,18.57-28.27,9.78-3.86,20.84-3.1,29.91,1.92l-.16,10.67c-4.95-6.92-12.63-10.07-20.71-8.55-7.44,1.32-13.5,6.12-16.31,13.23s-2.66,15.3.64,22.35Z"/>
  </g>
  <path class="cls-1" d="M663.12,65.82c-9.08,3.5-18.87,1.49-26.64-3.9l.14-10.71c3.09,3.99,6.09,7.1,10.45,8.81,4.78,1.88,10.1,1.93,14.48-.71,2.89-1.74,4.34-4.72,4.29-7.92s-2.21-5.91-5.36-7.38l-13.61-6.38c-4.9-2.3-8.07-6.88-8.77-11.68-.83-5.67,1.08-10.88,5.31-14.61,7.64-6.75,20.13-6.39,29.14-1.18l-.13,10.42c-4.59-7.35-13.16-10.1-20.82-6.92-3.44,1.43-5.28,4.56-5.38,7.98s1.87,6.54,5.21,8.13l12.99,6.14c3.51,1.66,6.76,4.17,8.41,7.77,4.03,8.79-.45,18.58-9.71,22.14Z"/>
  <path class="cls-1" d="M464.44,43.59c-2.24-2.1-4.53-3.02-7.34-3.05l-16.08-.2.04,17.5c0,3.25,1.1,6.05,3.26,8.72l-14.88-.03c2.05-2.78,3-5.77,3-9.2l-.02-41.17c0-3.34-.98-6.25-2.97-8.81l38.67-.02-.06,10.21c-2.15-2.47-4.89-3.99-8.49-4.02l-18.53-.16-.02,21.06,17.58-.43c2.35-.06,4.11-1.24,5.88-3.1l-.02,12.7Z"/>
  <g>
    <path class="cls-1" d="M872.21,38.9c-2.15-.55-3.98-.26-6.24-.22l.09,18.15c.02,3.64.97,6.8,2.89,9.79l-14.35-.03c1.95-3.02,2.93-6.13,2.93-9.76V16.64c0-3.5-.97-6.48-2.9-9.33l24.15.13c3.34.02,6.5,1.05,9.4,2.44,4.72,2.25,7.61,6.42,8.12,11.3.91,8.67-5.35,14.81-14.58,16.62l23.8,28.71-11.17.04-22.14-27.65ZM884.03,15.67c-2.36-1.77-5.17-2.44-7.9-2.46l-10.17-.08v19.57c8.24.26,18.73.76,20.94-6.84,1.08-3.73.39-7.76-2.87-10.2Z"/>
    <path class="cls-1" d="M966.24,17.71l-15.32,24.39.1,15.17c.02,3.33.83,6.36,2.9,9.28l-14.45.02c2.22-3.5,2.85-6.72,2.87-10.34l.07-13.76-15.89-26.27c-2-3.08-3.84-5.75-6.81-8.71l14.96-.2c-.39,3.3.24,6.23,1.83,8.92l11.3,19.08,11.38-18.26c1.89-3.03,2.86-6.38,2.58-9.71l12.82.05c-3.33,3.16-5.84,6.35-8.34,10.33Z"/>
  </g>
  <path class="cls-1" d="M524.47,66.53l-14.98.05c2.24-3.24,3.22-6.17,3.22-9.74l.03-43.56-12.28.36c-3.13.55-5.77,1.65-7.79,4.48l-.18-10.79,49.05.02-.11,10.64c-1.93-2.52-4.46-4.19-7.55-4.3l-12.6-.43.02,43.6c.3,3.5.94,6.28,3.17,9.69Z"/>
  <path class="cls-1" d="M437.53,162.09l-14.12.07c2-3.11,2.51-5.99,2.85-9.38l-.02-40.69c-.37-3.22-.85-5.9-2.77-8.97l14.09-.11c-1.72,3.07-2.74,6.02-2.74,9.55l-.05,40.2c.33,3.3.77,5.97,2.76,9.32Z"/>
  <path class="cls-1" d="M495.36,162.14h-14.92c2.39-3.21,2.96-6.31,3.19-9.94l.08-43.23-11.4.27c-3.48.28-6.22,1.48-8.93,4.46l-.09-10.66h49.23s-.09,10.62-.09,10.62c-2.36-2.49-4.38-3.73-7.28-4.18-4.26-.79-8.53-.66-13.06-.51l.06,42.81c.22,3.77.75,7.02,3.2,10.36Z"/>
  <g>
    <path class="cls-1" d="M321.89,66.55l-14.44.02c2.32-3.61,2.83-6.91,2.91-10.69l.09-16.44h-32.1s.05,17.43.05,17.43c.01,3.48.92,6.5,2.84,9.72l-14.25-.07c1.98-3.26,2.85-6.47,2.85-10.17V17.12c-.02-3.56-.86-6.66-2.84-9.77h14.17c-1.74,2.87-2.71,5.61-2.73,8.77l-.1,17.37h32.11s-.11-16.38-.11-16.38c-.02-3.49-.69-6.71-2.88-9.73h14.39c-2.12,2.88-2.87,5.91-2.88,9.34l-.08,40.08c.32,3.57.75,6.71,3,9.75Z"/>
    <path class="cls-1" d="M233.08,63.11c-8.9,6.79-22.3,5.36-31.39-1.18l.13-10.69c5.87,8.68,16.63,13.12,24.92,8.05,2.85-1.74,4.34-4.73,4.26-7.9s-2.2-5.91-5.33-7.38l-13.61-6.38c-4.91-2.3-8.11-6.89-8.8-11.67-.8-5.58.98-10.69,5.07-14.42,7.76-7.06,20.65-6.61,29.49-1.26l-.18,10.34c-4.67-7.38-13.19-10.15-20.85-6.98-3.45,1.43-5.32,4.56-5.43,7.99s1.88,6.55,5.23,8.13l13.01,6.15c3.11,1.47,5.93,3.58,7.73,6.59,4.13,6.91,2.07,15.76-4.28,20.59Z"/>
  </g>
  <g>
    <path class="cls-1" d="M567.17,144.55l-24.51-.05-3.49,9.81c-.95,2.69-.55,5.31.58,7.87l-12.6-.08c2.05-2.33,3.44-4.28,4.5-6.99l20.34-51.99,7.52-.09,21.29,52.68c.99,2.46,2.29,4.21,4.03,6.4l-14.7.06c1.27-2.67,1.45-5.28.49-7.96l-3.46-9.68ZM564.66,138.37l-9.96-24.85-9.72,25,19.68-.15Z"/>
    <path class="cls-1" d="M649.6,150l.24,12.19h-40c1.9-3.11,2.82-6.3,2.82-9.97v-39.01c0-3.7-.69-6.93-2.86-10.19h14.31c-1.9,2.87-2.86,6.17-2.87,10.04l-.09,43.15,19.79-.24c3.8-.45,6.59-2.07,8.67-5.96Z"/>
  </g>
</svg>