<?xml version="1.0" encoding="UTF-8"?>
<svg id="Layer_1" xmlns="http://www.w3.org/2000/svg" version="1.1" viewBox="0 0 824 64">
  <!-- Generator: Adobe Illustrator 30.4.0, SVG Export Plug-In . SVG Version: 2.1.4 Build 226)  -->
  <defs>
    <style>
      .st0 {
        fill: #0a2c4a;
      }
    </style>
  </defs>
  <path class="st0" d="M62.74,62.18c.17-2.47.26-8.11.26-12.78v-31.81c0-6.26-.09-13.39-.26-15.77h7.67c-.18,2.38-.35,9.52-.35,15.77v9.16h32.61v-9.16c0-5.02,0-12.07-.26-15.77h7.67c-.18,3.88-.35,10.93-.35,15.77v31.9c0,4.58.18,10.22.35,12.69h-7.67c.17-2.47.26-8.11.26-12.77v-16.74h-32.6v16.83c0,4.58.18,10.22.35,12.69h-7.67Z"/>
  <path class="st0" d="M206.23,46.4c0,5.99.18,13.04.35,15.77h-7.67c.18-2.73.26-9.78.26-15.77V15.83c0-5.99-.09-11.37-.26-14.01h16c14.24,0,21.01,7.84,21.01,18.33s-7.55,18.33-21.18,18.33h-8.51v7.92ZM206.23,33.01h7.98c9.71,0,14.56-6.43,14.56-12.95s-4.33-12.69-14.65-12.69h-7.89v25.64Z"/>
  <path class="st0" d="M454.13,62.18c.17-2.47.35-8.11.35-12.78v-31.9c0-5.29-.17-12.25-.35-17.01h1.66c2.62,3.26,4.19,5.02,7.15,8.37l32.25,38.77v-30.05c0-5.02-.17-12.07-.26-15.77h7.32c-.17,3.88-.26,10.93-.26,15.77v32.87c0,3.7,0,7.67.26,12.78h-1.57c-2.18-2.82-3.67-4.58-6.45-7.84l-32.86-39.47-.17,33.57c0,4.58.17,10.22.35,12.69h-7.41Z"/>
  <path class="st0" d="M615.58,46.32c0,10.13-7.32,17.18-18.05,17.18-5.67,0-9.07-1.5-13.6-2.2v-10.05c2.18,3.7,7.85,6.52,13.78,6.52,6.45,0,10.29-4.4,10.29-10.57,0-13.04-22.23-12.95-22.23-30.4,0-10.3,7.23-16.21,17.26-16.21,4.54,0,7.32,1.23,10.98,1.67v9.52c-1.57-3.88-5.94-5.64-10.98-5.64-5.84,0-10.03,3.53-10.03,9.78,0,12.69,22.58,12.95,22.58,30.4"/>
  <path class="st0" d="M721.5,62.18c-.87-2.55-2.27-5.99-3.92-9.95l-4.36-10.48h-22.75l-4.27,10.3c-1.92,4.67-3.14,7.75-3.84,10.13h-8.02c2.01-3.79,4.27-8.46,6.28-13.39L701.19.68h2l20.84,48.11c2.18,4.93,4.54,9.78,6.54,13.39h-9.07ZM701.8,13.63l-8.98,22.2h17.95l-8.97-22.2Z"/>
  <path class="st0" d="M352.22,55.83c-2.62.17-8.02.26-13.95.26h-10.46V17.59c0-6.08.17-13.13.26-15.77h-7.67c.17,2.64.35,9.69.35,15.77v28.81c0,3.97-.17,10.93-.35,15.77h17.87c3.84,0,7.44.07,10.23.17l3.72-6.51Z"/>
  <path class="st0" d="M396.6,55.83c-2.62.17-8.02.26-13.95.26h-10.46V17.59c0-6.08.17-13.13.26-15.77h-7.67c.17,2.64.35,9.69.35,15.77v28.81c0,3.97-.17,10.93-.35,15.77h17.87c3.84,0,7.44.07,10.23.17l3.72-6.51Z"/>
  <path class="st0" d="M35.28,1.82c6.01,0,12.38-.09,15.08-.26v6.52c-2.7-.18-9.07-.35-15.08-.35h-6.11c-.09,3.26-.09,7.75-.09,11.37v27.31c0,5.99.09,13.04.35,15.77h-7.75c.17-2.73.26-9.78.26-15.77v-27.32c0-3.61-.09-8.1-.26-11.37h-6.01c-5.94,0-12.2.18-14.91.35V1.56c2.7.17,8.98.26,14.91.26h19.61Z"/>
  <path class="st0" d="M146.43,56.19h-9.76v-23.26h12.29s.06.01.06.01h1.11s.14.01.14.01c1.17.02,2.26.04,3.24.07,1.46.04,2.69.09,3.64.15v-6.5c-2.7.17-7.67.26-13.6.26h-6.89V7.73h10.07c.94,0,1.86.01,2.75.02h.16l1.27.02h.04c.9.01,1.76.03,2.57.06h.02c.4.01.8.02,1.17.03,1.5.05,2.76.12,3.66.21V1.47c-2.7.17-8.72.35-14.73.35h-14.38c.17,2.64.35,9.6.35,15.68v30.21c0,.38,0,.76-.01,1.17-.05,3.99-.19,9.35-.33,13.3h17.17c4.02,0,8.06.04,11.09.12l3.64-6.38c-2.62.17-8.72.26-14.73.26"/>
  <path class="st0" d="M426.32,56.19h-9.77v-23.26h12.29s.06.01.06.01h1.11s.14.01.14.01c1.17.02,2.26.04,3.24.07,1.46.04,2.69.09,3.64.15v-6.5c-2.7.17-7.67.26-13.6.26h-6.89V7.73h10.07c.94,0,1.86.01,2.75.02h.15l1.27.02h.04c.9.01,1.76.03,2.57.06h.02c.4.01.8.02,1.17.03,1.5.05,2.76.12,3.66.21V1.47c-2.7.17-8.72.35-14.73.35h-14.38c.17,2.64.35,9.6.35,15.68v30.21c0,.38,0,.76-.01,1.17-.05,3.99-.19,9.35-.33,13.3h17.17c4.02,0,8.06.04,11.09.12l3.64-6.38c-2.62.17-8.72.26-14.73.26"/>
  <path class="st0" d="M557.96,56.19h-9.76v-23.26h12.29s.06.01.06.01h1.11s.14.01.14.01c1.17.02,2.26.04,3.24.07,1.46.04,2.69.09,3.64.15v-6.5c-2.7.17-7.67.26-13.6.26h-6.89V7.73h10.07c.94,0,1.86.01,2.75.02h.16l1.27.02h.04c.9.01,1.77.03,2.57.06h.02c.41.01.8.02,1.17.03,1.5.05,2.76.12,3.66.21V1.47c-2.7.17-8.72.35-14.73.35h-14.38c.17,2.64.35,9.6.35,15.68v30.21c0,.38,0,.76-.01,1.17-.05,3.99-.19,9.35-.33,13.3h17.17c4.02,0,8.06.04,11.09.12l3.64-6.38c-2.62.17-8.72.26-14.73.26"/>
  <path class="st0" d="M808.5,56.19h-9.76v-23.26h12.29s.06.01.06.01h1.11s.14.01.14.01c1.17.02,2.26.04,3.24.07,1.46.04,2.69.09,3.64.15v-6.5c-2.7.17-7.67.26-13.6.26h-6.89V7.73h10.07c.94,0,1.86.01,2.75.02h.16l1.27.02h.04c.9.01,1.76.03,2.57.06h.02c.41.01.8.02,1.17.03,1.5.05,2.76.12,3.66.21V1.47c-2.7.17-8.72.35-14.73.35h-14.38c.17,2.64.35,9.6.35,15.68v30.21c0,.38,0,.76-.01,1.17-.05,3.99-.19,9.35-.33,13.3h17.17c4.02,0,8.06.04,11.09.12l3.64-6.38c-2.62.17-8.72.26-14.73.26"/>
  <path class="st0" d="M763.96,1.82c6.02,0,12.38-.09,15.08-.26v6.52c-2.7-.18-9.07-.35-15.08-.35h-6.11c-.09,3.26-.09,7.75-.09,11.37v27.31c0,5.99.09,13.04.35,15.77h-7.76c.17-2.73.26-9.78.26-15.77v-27.32c0-3.61-.09-8.1-.26-11.37h-6.02c-5.94,0-12.2.18-14.91.35V1.56c2.7.17,8.98.26,14.91.26h19.62Z"/>
  <path class="st0" d="M659.96,1.82c6.02,0,12.38-.09,15.08-.26v6.52c-2.7-.18-9.07-.35-15.08-.35h-6.11c-.09,3.26-.09,7.75-.09,11.37v27.31c0,5.99.09,13.04.35,15.77h-7.75c.17-2.73.26-9.78.26-15.77v-27.32c0-3.61-.09-8.1-.26-11.37h-6.02c-5.94,0-12.21.18-14.91.35V1.56c2.7.17,8.98.26,14.91.26h19.61Z"/>
  <path class="st0" d="M275.88.76c17.26,0,28.89,14.01,28.89,31.19s-11.63,31.28-28.89,31.28-28.89-14.01-28.89-31.28S258.62.76,275.88.76M275.88,57.07c13.08,0,21.66-11.19,21.66-25.11s-8.58-25.02-21.66-25.02-21.66,11.19-21.66,25.02,8.58,25.11,21.66,25.11"/>
</svg>